<?xml version="1.0" encoding="UTF-8"?>
<svg id="_레이어_2" data-name="레이어 2" xmlns="http://www.w3.org/2000/svg" viewBox="0 0 37.91 21.45">
  <g id="_레이어_1-2" data-name="레이어 1">
    <path d="m27.19,0H10.72C4.81,0,0,4.81,0,10.72s4.81,10.72,10.72,10.72h16.46c5.91,0,10.72-4.81,10.72-10.72S33.1,0,27.19,0ZM3.56,10.72c0-3.95,3.21-7.16,7.16-7.16h5.24c-2.8,1.17-4.77,3.94-4.77,7.16s1.97,5.99,4.77,7.16h-5.24c-3.95,0-7.16-3.21-7.16-7.16Zm23.63,7.16h-5.24c2.8-1.17,4.77-3.94,4.77-7.16s-1.97-5.99-4.77-7.16h5.24c3.95,0,7.16,3.21,7.16,7.16s-3.21,7.16-7.16,7.16Z"/>
  </g>
</svg>