<?xml version="1.0" encoding="UTF-8"?>
<svg id="_레이어_2" data-name="레이어 2" xmlns="http://www.w3.org/2000/svg" viewBox="0 0 182.39 164.64">
  <g id="_레이어_1-2" data-name="레이어 1">
    <g>
      <path d="m61.9,73.96h16.46c5.91,0,10.72-4.81,10.72-10.72s-4.81-10.72-10.72-10.72h-16.46c-5.91,0-10.72,4.81-10.72,10.72s4.81,10.72,10.72,10.72Zm11.22-17.89h5.24c3.95,0,7.16,3.21,7.16,7.16s-3.21,7.16-7.16,7.16h-5.24c2.8-1.17,4.77-3.94,4.77-7.16s-1.97-5.99-4.77-7.16Zm-11.22,0h5.24c-2.8,1.17-4.77,3.94-4.77,7.16s1.97,5.99,4.77,7.16h-5.24c-3.95,0-7.16-3.21-7.16-7.16s3.21-7.16,7.16-7.16Z"/>
      <path d="m82.96,48.79h16.46c5.91,0,10.72-4.81,10.72-10.72s-4.81-10.72-10.72-10.72h-16.46c-5.91,0-10.72,4.81-10.72,10.72s4.81,10.72,10.72,10.72Zm11.22-17.89h5.24c3.95,0,7.16,3.21,7.16,7.16s-3.21,7.16-7.16,7.16h-5.24c2.8-1.17,4.77-3.94,4.77-7.16s-1.97-5.99-4.77-7.16Zm-11.22,0h5.24c-2.8,1.17-4.77,3.94-4.77,7.16s1.97,5.99,4.77,7.16h-5.24c-3.95,0-7.16-3.21-7.16-7.16s3.21-7.16,7.16-7.16Z"/>
      <path d="m120.49,52.51h-16.46c-5.91,0-10.72,4.81-10.72,10.72s4.81,10.72,10.72,10.72h16.46c5.91,0,10.72-4.81,10.72-10.72s-4.81-10.72-10.72-10.72Zm-11.22,17.89h-5.24c-3.95,0-7.16-3.21-7.16-7.16s3.21-7.16,7.16-7.16h5.24c-2.8,1.17-4.77,3.94-4.77,7.16s1.97,5.99,4.77,7.16Zm11.22,0h-5.24c2.8-1.17,4.77-3.94,4.77-7.16s-1.97-5.99-4.77-7.16h5.24c3.95,0,7.16,3.21,7.16,7.16s-3.21,7.16-7.16,7.16Z"/>
      <path d="m174.51,139.4c-1.1,0-2,.9-2,2,0,4.97-1.97,9.61-5.54,13.07-3.57,3.45-8.28,5.27-13.26,5.1-9.68-.32-17.55-8.71-17.55-18.69v-57.95l26.54-27.44c.37-.38.57-.89.56-1.42,0-.53-.23-1.04-.61-1.4l-27.11-26.19c-.79-.77-2.06-.75-2.83.05-.77.79-.75,2.06.05,2.83l25.67,24.8-25.71,26.58s-.06.07-.09.11c-.05.06-.1.12-.15.19-.04.05-.06.11-.09.17-.03.06-.06.12-.09.18-.03.06-.04.13-.06.2-.02.06-.04.11-.05.18-.02.08-.02.16-.02.25,0,.04-.01.08-.01.13v58.76c0,12.12,9.61,22.3,21.42,22.69.26,0,.51.01.77.01,5.79,0,11.23-2.2,15.41-6.23,4.36-4.22,6.76-9.88,6.76-15.94,0-1.1-.9-2-2-2Z"/>
      <path d="m50.19,82.8c-.01-.06-.03-.12-.05-.18-.02-.07-.04-.13-.06-.2-.03-.06-.06-.12-.09-.18-.03-.06-.06-.11-.09-.17-.04-.07-.1-.13-.15-.19-.03-.04-.05-.08-.09-.11l-25.71-26.58,25.67-24.8c.79-.77.82-2.03.05-2.83-.77-.79-2.03-.82-2.83-.05l-27.11,26.19c-.38.37-.6.87-.61,1.4,0,.53.19,1.04.56,1.42l26.54,27.44v57.95c0,9.98-7.87,18.37-17.55,18.69-4.98.17-9.69-1.65-13.26-5.1-3.57-3.46-5.54-8.1-5.54-13.07,0-1.1-.9-2-2-2s-2,.9-2,2c0,6.06,2.4,11.73,6.76,15.94,4.17,4.04,9.62,6.23,15.41,6.23.25,0,.51,0,.77-.01,11.81-.4,21.42-10.57,21.42-22.69v-58.76s-.01-.09-.01-.13c0-.08,0-.17-.02-.25Z"/>
      <path d="m91.19,15.75c4.34,0,7.87-3.53,7.87-7.87s-3.53-7.87-7.87-7.87-7.87,3.53-7.87,7.87,3.53,7.87,7.87,7.87Zm0-11.75c2.14,0,3.87,1.74,3.87,3.87s-1.74,3.87-3.87,3.87-3.87-1.74-3.87-3.87,1.74-3.87,3.87-3.87Z"/>
      <path d="m15.75,122.91c0-4.34-3.53-7.87-7.87-7.87s-7.87,3.53-7.87,7.87,3.53,7.87,7.87,7.87,7.87-3.53,7.87-7.87Zm-11.75,0c0-2.14,1.74-3.87,3.87-3.87s3.87,1.74,3.87,3.87-1.74,3.87-3.87,3.87-3.87-1.74-3.87-3.87Z"/>
      <path d="m174.51,115.04c-4.34,0-7.87,3.53-7.87,7.87s3.53,7.87,7.87,7.87,7.87-3.53,7.87-7.87-3.53-7.87-7.87-7.87Zm0,11.75c-2.14,0-3.87-1.74-3.87-3.87s1.74-3.87,3.87-3.87,3.87,1.74,3.87,3.87-1.74,3.87-3.87,3.87Z"/>
      <path d="m127.65,80.12h-34.46v-6.16c0-1.1-.9-2-2-2s-2,.9-2,2v6.16h-34.46c-1.1,0-2,.9-2,2s.9,2,2,2h34.46v77.46c0,1.1.9,2,2,2s2-.9,2-2v-77.46h34.46c1.1,0,2-.9,2-2s-.9-2-2-2Z"/>
    </g>
  </g>
</svg>