<?xml version="1.0" encoding="UTF-8"?>
<svg id="_레이어_2" data-name="레이어 2" xmlns="http://www.w3.org/2000/svg" viewBox="0 0 80.03 46.61">
  <defs>
    <style>
      .cls-1 {
        fill: #fff;
      }
    </style>
  </defs>
  <g id="_레이어_1-2" data-name="레이어 1">
    <g>
      <path class="cls-1" d="m10.72,46.61h16.46c5.91,0,10.72-4.81,10.72-10.72s-4.81-10.72-10.72-10.72H10.72c-5.91,0-10.72,4.81-10.72,10.72s4.81,10.72,10.72,10.72Zm11.22-17.89h5.24c3.95,0,7.16,3.21,7.16,7.16s-3.21,7.16-7.16,7.16h-5.24c2.8-1.17,4.77-3.94,4.77-7.16s-1.97-5.99-4.77-7.16Zm-11.22,0h5.24c-2.8,1.17-4.77,3.94-4.77,7.16s1.97,5.99,4.77,7.16h-5.24c-3.95,0-7.16-3.21-7.16-7.16s3.21-7.16,7.16-7.16Z"/>
      <path class="cls-1" d="m31.79,21.45h16.46c5.91,0,10.72-4.81,10.72-10.72S54.16,0,48.25,0h-16.46c-5.91,0-10.72,4.81-10.72,10.72s4.81,10.72,10.72,10.72ZM43.01,3.56h5.24c3.95,0,7.16,3.21,7.16,7.16s-3.21,7.16-7.16,7.16h-5.24c2.8-1.17,4.77-3.94,4.77-7.16s-1.97-5.99-4.77-7.16Zm-11.22,0h5.24c-2.8,1.17-4.77,3.94-4.77,7.16s1.97,5.99,4.77,7.16h-5.24c-3.95,0-7.16-3.21-7.16-7.16s3.21-7.16,7.16-7.16Z"/>
      <path class="cls-1" d="m69.31,25.17h-16.46c-5.91,0-10.72,4.81-10.72,10.72s4.81,10.72,10.72,10.72h16.46c5.91,0,10.72-4.81,10.72-10.72s-4.81-10.72-10.72-10.72Zm-11.22,17.89h-5.24c-3.95,0-7.16-3.21-7.16-7.16s3.21-7.16,7.16-7.16h5.24c-2.8,1.17-4.77,3.94-4.77,7.16s1.97,5.99,4.77,7.16Zm11.22,0h-5.24c2.8-1.17,4.77-3.94,4.77-7.16s-1.97-5.99-4.77-7.16h5.24c3.95,0,7.16,3.21,7.16,7.16s-3.21,7.16-7.16,7.16Z"/>
    </g>
  </g>
</svg>