<svg width="68" height="25" viewBox="0 0 68 25" fill="none" xmlns="http://www.w3.org/2000/svg">
<path d="M15.5 19.5L8.5 12.5L15.5 5.5" stroke="#F5F5F5" stroke-width="3" stroke-linecap="round"/>
<path d="M26.608 18.5V17.828H26.816C27.1787 17.828 27.488 17.764 27.744 17.636C28 17.4973 28.128 17.1773 28.128 16.676V8.836C28.128 8.36667 27.9947 8.068 27.728 7.94C27.472 7.812 27.168 7.748 26.816 7.748H26.608V7.076H30.896C32.2827 7.076 33.312 7.31067 33.984 7.78C34.6667 8.23867 35.008 8.95867 35.008 9.94C35.008 10.6547 34.816 11.2093 34.432 11.604C34.0587 11.988 33.5893 12.2707 33.024 12.452V12.516C33.7493 12.644 34.3413 12.948 34.8 13.428C35.2587 13.908 35.488 14.5693 35.488 15.412C35.488 17.4707 34.1173 18.5 31.376 18.5H26.608ZM29.744 12.116H30.848C31.7867 12.116 32.4267 11.9453 32.768 11.604C33.12 11.2627 33.296 10.708 33.296 9.94C33.296 9.16133 33.1093 8.62267 32.736 8.324C32.3627 8.02533 31.7227 7.876 30.816 7.876H29.744V12.116ZM29.744 17.7H31.296C32.2027 17.7 32.8427 17.524 33.216 17.172C33.5893 16.82 33.776 16.2173 33.776 15.364C33.776 14.532 33.6 13.9187 33.248 13.524C32.9067 13.1187 32.2667 12.916 31.328 12.916H29.744V17.7ZM35.8363 18.5V17.828H36.1403C36.4496 17.828 36.6789 17.748 36.8283 17.588C36.9883 17.428 37.1643 17.092 37.3563 16.58L40.9083 7.076H42.1563L45.7723 16.98C45.8896 17.3107 46.0283 17.5347 46.1883 17.652C46.3589 17.7693 46.5989 17.828 46.9083 17.828H47.1163V18.5H42.7163V17.828H43.0843C43.7243 17.828 44.0443 17.572 44.0443 17.06C44.0443 16.9747 44.0336 16.884 44.0123 16.788C43.9909 16.692 43.9589 16.5853 43.9163 16.468L43.2763 14.676H39.0683L38.4603 16.356C38.3643 16.612 38.3163 16.8413 38.3163 17.044C38.3163 17.5667 38.6683 17.828 39.3723 17.828H39.7403V18.5H35.8363ZM39.3723 13.876H42.9883L41.9963 11.076C41.8256 10.6067 41.6709 10.164 41.5323 9.748C41.3936 9.332 41.2816 8.932 41.1963 8.548C41.1216 8.932 41.0256 9.3 40.9083 9.652C40.7909 10.004 40.6416 10.4307 40.4603 10.932L39.3723 13.876ZM52.261 18.66C51.205 18.66 50.3143 18.4147 49.589 17.924C48.8637 17.4333 48.3143 16.7507 47.941 15.876C47.5783 14.9907 47.397 13.956 47.397 12.772C47.397 11.62 47.589 10.6067 47.973 9.732C48.3677 8.84667 48.9437 8.15867 49.701 7.668C50.4583 7.16667 51.4023 6.916 52.533 6.916C53.621 6.916 54.4317 7.08667 54.965 7.428C55.4983 7.76933 55.765 8.196 55.765 8.708C55.765 9.04933 55.6317 9.32133 55.365 9.524C55.0983 9.72667 54.7677 9.828 54.373 9.828C54.373 9.49733 54.3143 9.17733 54.197 8.868C54.0797 8.548 53.8823 8.28667 53.605 8.084C53.3383 7.87067 52.9703 7.764 52.501 7.764C51.2957 7.764 50.437 8.20133 49.925 9.076C49.4237 9.94 49.173 11.172 49.173 12.772C49.173 13.732 49.285 14.5747 49.509 15.3C49.7437 16.0253 50.101 16.5907 50.581 16.996C51.0717 17.4013 51.7117 17.604 52.501 17.604C53.2797 17.604 53.8877 17.4707 54.325 17.204C54.773 16.9267 55.1303 16.6067 55.397 16.244C55.4823 16.2973 55.5517 16.3773 55.605 16.484C55.669 16.58 55.701 16.708 55.701 16.868C55.701 17.1347 55.5783 17.4067 55.333 17.684C55.0877 17.9613 54.709 18.196 54.197 18.388C53.6957 18.5693 53.0503 18.66 52.261 18.66ZM56.6011 18.5V17.828H56.8091C57.1611 17.828 57.4651 17.7693 57.7211 17.652C57.9878 17.524 58.1211 17.2253 58.1211 16.756V8.836C58.1211 8.36667 57.9878 8.068 57.7211 7.94C57.4651 7.812 57.1611 7.748 56.8091 7.748H56.6011V7.076H61.2571V7.748H61.0491C60.6865 7.748 60.3771 7.81733 60.1211 7.956C59.8651 8.084 59.7371 8.39867 59.7371 8.9V13.412L63.0491 9.62C63.3905 9.22533 63.6198 8.91067 63.7371 8.676C63.8651 8.43067 63.9291 8.23333 63.9291 8.084C63.9291 7.94533 63.8651 7.85467 63.7371 7.812C63.6091 7.75867 63.4118 7.732 63.1451 7.732V7.076H66.6811V7.732C66.3185 7.732 65.9718 7.87067 65.6411 8.148C65.3211 8.41467 64.9531 8.77733 64.5371 9.236L62.2171 11.844L65.5931 16.548C65.8918 16.964 66.1851 17.284 66.4731 17.508C66.7611 17.7213 67.0545 17.828 67.3531 17.828H67.3851V18.5H67.2091C66.6758 18.5 66.2331 18.4787 65.8811 18.436C65.5398 18.3933 65.2518 18.3187 65.0171 18.212C64.7931 18.1053 64.5905 17.9613 64.4091 17.78C64.2385 17.588 64.0518 17.348 63.8491 17.06L61.0971 13.108L59.7371 14.212V16.676C59.7371 17.1773 59.8651 17.4973 60.1211 17.636C60.3771 17.764 60.6865 17.828 61.0491 17.828H61.2571V18.5H56.6011Z" fill="#F5F5F5"/>
</svg>
