<svg width="165" height="107" viewBox="0 0 165 107" fill="none" xmlns="http://www.w3.org/2000/svg">
<path d="M82.5 0L94.2491 20.0601L118.295 5.28278L115.42 26.6525L147.001 20.0848L130.071 38.5316L162.932 41.4744L135.3 53.3447L162.932 65.215L130.071 68.1577L147.001 86.6045L115.42 80.0368L118.295 101.407L94.2491 86.6293L82.5 106.689L70.7509 86.6293L46.7046 101.407L49.5797 80.0368L17.9989 86.6045L34.9288 68.1577L2.06845 65.215L29.7 53.3447L2.06845 41.4744L34.9288 38.5316L17.9989 20.0848L49.5797 26.6525L46.7046 5.28278L70.7509 20.0601L82.5 0Z" fill="#FAFF00"/>
<path d="M34.478 50.776V55.83C34.478 57.104 34.604 57.412 35.22 57.412H35.43C35.724 57.412 35.864 57.552 35.864 57.706C35.864 57.874 35.724 58 35.43 58H31.86C31.566 58 31.426 57.874 31.426 57.706C31.426 57.552 31.566 57.412 31.86 57.412H32C32.616 57.412 32.742 57.104 32.742 55.83V53.548H28.556V55.83C28.556 57.104 28.682 57.412 29.298 57.412H29.438C29.732 57.412 29.872 57.552 29.872 57.706C29.872 57.874 29.732 58 29.438 58H25.868C25.574 58 25.434 57.874 25.434 57.706C25.434 57.552 25.574 57.412 25.868 57.412H26.078C26.694 57.412 26.82 57.104 26.82 55.83V50.776C26.82 49.516 26.694 49.194 26.078 49.194H25.938C25.644 49.194 25.504 49.054 25.504 48.9C25.504 48.732 25.644 48.606 25.938 48.606H29.368C29.662 48.606 29.802 48.732 29.802 48.9C29.802 49.054 29.662 49.194 29.368 49.194H29.298C28.682 49.194 28.556 49.516 28.556 50.776V52.764H32.742V50.776C32.742 49.516 32.616 49.194 32 49.194H31.93C31.636 49.194 31.496 49.054 31.496 48.9C31.496 48.732 31.636 48.606 31.93 48.606H35.36C35.654 48.606 35.794 48.732 35.794 48.9C35.794 49.054 35.654 49.194 35.36 49.194H35.22C34.604 49.194 34.478 49.516 34.478 50.776ZM37.7486 55.83V50.44C37.7486 49.432 37.5526 49.194 36.9366 49.194H36.8806C36.6006 49.194 36.4606 49.096 36.4606 48.914C36.4606 48.704 36.6006 48.606 36.8806 48.606H43.9786L44.0066 50.454C44.0066 50.972 43.6006 51.07 43.4046 50.58C43.0686 49.726 42.5506 49.362 41.0946 49.362H39.4846V52.75H40.7586C42.0046 52.75 42.3686 52.358 42.3686 51.644C42.3686 51.406 42.4666 51.28 42.6766 51.28C42.8586 51.28 42.9566 51.406 42.9566 51.644V54.64C42.9566 54.878 42.8586 55.004 42.6766 55.004C42.4666 55.004 42.3686 54.878 42.3686 54.64C42.3686 53.926 42.0046 53.534 40.7586 53.534H39.4846V55.83C39.4846 56.992 39.7366 57.244 40.3526 57.244H41.5846C42.7046 57.244 43.3346 56.866 43.9226 55.69C44.0206 55.48 44.1606 55.41 44.3146 55.41C44.5246 55.41 44.6786 55.606 44.5666 55.942L43.8526 58H36.8386C36.5866 58 36.4606 57.902 36.4606 57.692C36.4606 57.51 36.5866 57.412 36.8386 57.412H36.9786C37.5386 57.412 37.7486 57.174 37.7486 55.83ZM50.4511 53.674L52.5791 56.306C53.2091 57.132 53.7691 57.412 54.2031 57.412C54.4971 57.412 54.6511 57.51 54.6511 57.706C54.6511 57.902 54.4971 58 54.2031 58H51.7251C51.5151 57.482 51.3331 57.188 50.9831 56.754L48.6031 53.758H48.4491V55.83C48.4491 57.104 48.5751 57.412 49.1911 57.412H49.4011C49.6951 57.412 49.8351 57.552 49.8351 57.706C49.8351 57.874 49.6951 58 49.4011 58H45.7611C45.4671 58 45.3271 57.874 45.3271 57.706C45.3271 57.552 45.4671 57.412 45.7611 57.412H45.9711C46.5871 57.412 46.7131 57.104 46.7131 55.83V50.776C46.7131 49.502 46.5171 49.194 45.9711 49.194H45.8311C45.5651 49.194 45.4111 49.082 45.4111 48.9C45.4111 48.704 45.5511 48.606 45.8311 48.606H49.0931C52.4951 48.606 53.2091 49.936 53.2091 51.182C53.2091 52.232 52.6911 53.38 50.4511 53.674ZM51.3891 51.168C51.3891 50.202 50.8991 49.362 48.9111 49.362H48.4491V52.974H48.9111C50.8991 52.974 51.3891 52.12 51.3891 51.168ZM55.9328 55.83V50.44C55.9328 49.432 55.7368 49.194 55.1208 49.194H55.0648C54.7848 49.194 54.6448 49.096 54.6448 48.914C54.6448 48.704 54.7848 48.606 55.0648 48.606H62.1628L62.1908 50.454C62.1908 50.972 61.7848 51.07 61.5888 50.58C61.2528 49.726 60.7348 49.362 59.2788 49.362H57.6688V52.75H58.9428C60.1888 52.75 60.5528 52.358 60.5528 51.644C60.5528 51.406 60.6508 51.28 60.8608 51.28C61.0428 51.28 61.1408 51.406 61.1408 51.644V54.64C61.1408 54.878 61.0428 55.004 60.8608 55.004C60.6508 55.004 60.5528 54.878 60.5528 54.64C60.5528 53.926 60.1888 53.534 58.9428 53.534H57.6688V55.83C57.6688 56.992 57.9208 57.244 58.5368 57.244H59.7688C60.8888 57.244 61.5188 56.866 62.1068 55.69C62.2048 55.48 62.3448 55.41 62.4988 55.41C62.7088 55.41 62.8628 55.606 62.7508 55.942L62.0368 58H55.0228C54.7708 58 54.6448 57.902 54.6448 57.692C54.6448 57.51 54.7708 57.412 55.0228 57.412H55.1628C55.7228 57.412 55.9328 57.174 55.9328 55.83ZM70.2771 50.776V55.83C70.2771 57.104 70.4031 57.412 71.0191 57.412H71.2291C71.5231 57.412 71.6631 57.552 71.6631 57.706C71.6631 57.874 71.5231 58 71.2291 58H67.5891C67.2951 58 67.1551 57.874 67.1551 57.706C67.1551 57.552 67.2951 57.412 67.5891 57.412H67.7991C68.4151 57.412 68.5411 57.104 68.5411 55.83V50.776C68.5411 49.516 68.4151 49.194 67.7991 49.194H67.6591C67.3651 49.194 67.2251 49.054 67.2251 48.9C67.2251 48.732 67.3651 48.606 67.6591 48.606H71.1591C71.4531 48.606 71.5931 48.732 71.5931 48.9C71.5931 49.054 71.4531 49.194 71.1591 49.194H71.0191C70.4031 49.194 70.2771 49.516 70.2771 50.776ZM78.1698 49.362H77.3018V55.83C77.3018 57.104 77.4278 57.412 78.0438 57.412H78.2538C78.5478 57.412 78.6878 57.552 78.6878 57.706C78.6878 57.874 78.5478 58 78.2538 58H74.6138C74.3198 58 74.1798 57.874 74.1798 57.706C74.1798 57.552 74.3198 57.412 74.6138 57.412H74.8238C75.4398 57.412 75.5658 57.104 75.5658 55.83V49.362H74.6978C73.8718 49.362 73.3258 49.754 73.0038 50.706C72.7798 51.406 72.2478 51.322 72.2898 50.664L72.3598 48.606H80.5078L80.5778 50.664C80.6198 51.322 80.0878 51.406 79.8638 50.706C79.5418 49.754 78.9958 49.362 78.1698 49.362ZM87.9762 50.776V55.83C87.9762 57.104 88.1022 57.412 88.7182 57.412H88.9282C89.2222 57.412 89.3622 57.552 89.3622 57.706C89.3622 57.874 89.2222 58 88.9282 58H85.2882C84.9942 58 84.8542 57.874 84.8542 57.706C84.8542 57.552 84.9942 57.412 85.2882 57.412H85.4982C86.1142 57.412 86.2402 57.104 86.2402 55.83V50.776C86.2402 49.516 86.1142 49.194 85.4982 49.194H85.3582C85.0642 49.194 84.9242 49.054 84.9242 48.9C84.9242 48.732 85.0642 48.606 85.3582 48.606H88.8582C89.1522 48.606 89.2922 48.732 89.2922 48.9C89.2922 49.054 89.1522 49.194 88.8582 49.194H88.7182C88.1022 49.194 87.9762 49.516 87.9762 50.776ZM93.9089 57.552C95.0289 57.552 95.6309 56.908 95.6309 56.124C95.6309 55.312 95.2109 54.766 93.5449 54.206C91.0529 53.352 90.2409 52.386 90.2409 50.818C90.2409 49.516 91.2209 48.284 93.0829 48.284C94.0209 48.284 94.6089 48.606 95.0709 48.928C95.3369 49.11 95.3929 49.11 95.4489 49.11C95.4909 49.11 95.5329 49.068 95.5749 48.97L95.7149 48.522C95.8549 48.088 96.3589 48.088 96.4009 48.578L96.5409 51.056C96.5829 51.448 96.4709 51.602 96.2469 51.602C96.0649 51.602 95.9389 51.49 95.8549 51.252C95.3089 49.74 94.4269 49.054 93.2929 49.054C92.1029 49.054 91.7109 49.796 91.7109 50.482C91.7109 51.308 92.1869 51.812 94.1189 52.484C96.3029 53.268 97.1009 53.982 97.1009 55.55C97.1009 57.23 95.9669 58.322 94.0349 58.322C93.2509 58.322 92.4389 58.098 91.8229 57.762C91.4869 57.58 91.4169 57.538 91.3749 57.538C91.3469 57.538 91.3189 57.566 91.3049 57.636L91.1649 58.14C91.0109 58.658 90.4229 58.686 90.3809 58.042L90.1569 55.158C90.1149 54.864 90.2969 54.682 90.5069 54.682C90.6749 54.682 90.8429 54.808 90.9129 55.102C91.2909 56.684 92.2709 57.552 93.9089 57.552Z" fill="#414141"/>
<path d="M104.945 55.102C104.903 55.592 104.637 55.732 104.343 55.732C104.021 55.732 103.783 55.592 103.741 55.102C103.559 53.058 103.237 49.712 103.237 48.746C103.237 48.172 103.615 47.71 104.343 47.71C105.085 47.71 105.463 48.172 105.463 48.746C105.463 49.712 105.127 53.058 104.945 55.102ZM103.321 57.72C103.321 57.174 103.671 56.74 104.343 56.74C105.015 56.74 105.365 57.174 105.365 57.72C105.365 58.238 105.015 58.7 104.343 58.7C103.671 58.7 103.321 58.238 103.321 57.72ZM111.255 55.102C111.213 55.592 110.947 55.732 110.653 55.732C110.331 55.732 110.093 55.592 110.051 55.102C109.869 53.058 109.547 49.712 109.547 48.746C109.547 48.172 109.925 47.71 110.653 47.71C111.395 47.71 111.773 48.172 111.773 48.746C111.773 49.712 111.437 53.058 111.255 55.102ZM109.631 57.72C109.631 57.174 109.981 56.74 110.653 56.74C111.325 56.74 111.675 57.174 111.675 57.72C111.675 58.238 111.325 58.7 110.653 58.7C109.981 58.7 109.631 58.238 109.631 57.72ZM117.565 55.102C117.523 55.592 117.257 55.732 116.963 55.732C116.641 55.732 116.403 55.592 116.361 55.102C116.179 53.058 115.857 49.712 115.857 48.746C115.857 48.172 116.235 47.71 116.963 47.71C117.705 47.71 118.083 48.172 118.083 48.746C118.083 49.712 117.747 53.058 117.565 55.102ZM115.941 57.72C115.941 57.174 116.291 56.74 116.963 56.74C117.635 56.74 117.985 57.174 117.985 57.72C117.985 58.238 117.635 58.7 116.963 58.7C116.291 58.7 115.941 58.238 115.941 57.72ZM123.874 55.102C123.832 55.592 123.566 55.732 123.272 55.732C122.95 55.732 122.712 55.592 122.67 55.102C122.488 53.058 122.166 49.712 122.166 48.746C122.166 48.172 122.544 47.71 123.272 47.71C124.014 47.71 124.392 48.172 124.392 48.746C124.392 49.712 124.056 53.058 123.874 55.102ZM122.25 57.72C122.25 57.174 122.6 56.74 123.272 56.74C123.944 56.74 124.294 57.174 124.294 57.72C124.294 58.238 123.944 58.7 123.272 58.7C122.6 58.7 122.25 58.238 122.25 57.72ZM130.184 55.102C130.142 55.592 129.876 55.732 129.582 55.732C129.26 55.732 129.022 55.592 128.98 55.102C128.798 53.058 128.476 49.712 128.476 48.746C128.476 48.172 128.854 47.71 129.582 47.71C130.324 47.71 130.702 48.172 130.702 48.746C130.702 49.712 130.366 53.058 130.184 55.102ZM128.56 57.72C128.56 57.174 128.91 56.74 129.582 56.74C130.254 56.74 130.604 57.174 130.604 57.72C130.604 58.238 130.254 58.7 129.582 58.7C128.91 58.7 128.56 58.238 128.56 57.72ZM136.494 55.102C136.452 55.592 136.186 55.732 135.892 55.732C135.57 55.732 135.332 55.592 135.29 55.102C135.108 53.058 134.786 49.712 134.786 48.746C134.786 48.172 135.164 47.71 135.892 47.71C136.634 47.71 137.012 48.172 137.012 48.746C137.012 49.712 136.676 53.058 136.494 55.102ZM134.87 57.72C134.87 57.174 135.22 56.74 135.892 56.74C136.564 56.74 136.914 57.174 136.914 57.72C136.914 58.238 136.564 58.7 135.892 58.7C135.22 58.7 134.87 58.238 134.87 57.72Z" fill="#E70000"/>
</svg>
