<svg width="100" height="100" viewBox="0 0 100 100" fill="none" xmlns="http://www.w3.org/2000/svg">
<path d="M21.436 59.04C21.18 59.04 20.956 59.0187 20.764 58.976C20.572 58.944 20.4013 58.896 20.252 58.832V57.616C20.4227 57.6693 20.604 57.7067 20.796 57.728C20.988 57.76 21.1907 57.776 21.404 57.776C21.6707 57.776 21.9213 57.7227 22.156 57.616C22.4013 57.5093 22.5987 57.3227 22.748 57.056C22.8973 56.8 22.972 56.4267 22.972 55.936V44.576H24.412V55.824C24.412 56.9227 24.14 57.7333 23.596 58.256C23.052 58.7787 22.332 59.04 21.436 59.04ZM34.371 51.696C34.371 53.1147 34.0083 54.2133 33.283 54.992C32.5683 55.7707 31.5977 56.16 30.371 56.16C29.6137 56.16 28.9363 55.9893 28.339 55.648C27.7523 55.296 27.2883 54.7893 26.947 54.128C26.6057 53.456 26.435 52.6453 26.435 51.696C26.435 50.2773 26.787 49.184 27.491 48.416C28.2057 47.648 29.1817 47.264 30.419 47.264C31.187 47.264 31.8697 47.44 32.467 47.792C33.0643 48.1333 33.5283 48.6347 33.859 49.296C34.2003 49.9467 34.371 50.7467 34.371 51.696ZM27.891 51.696C27.891 52.7093 28.0883 53.5147 28.483 54.112C28.8883 54.6987 29.5283 54.992 30.403 54.992C31.267 54.992 31.9017 54.6987 32.307 54.112C32.7123 53.5147 32.915 52.7093 32.915 51.696C32.915 50.6827 32.7123 49.888 32.307 49.312C31.9017 48.736 31.2617 48.448 30.387 48.448C29.5123 48.448 28.8777 48.736 28.483 49.312C28.0883 49.888 27.891 50.6827 27.891 51.696ZM37.6905 56H36.2825V43.84H37.6905V56ZM38.7435 47.424H40.2475L42.1035 52.304C42.2635 52.7413 42.4075 53.152 42.5355 53.536C42.6635 53.92 42.7595 54.288 42.8235 54.64H42.8875C42.9515 54.3733 43.0528 54.0267 43.1915 53.6C43.3302 53.1627 43.4742 52.7253 43.6235 52.288L45.3675 47.424H46.8875L43.1915 57.184C42.8822 57.9947 42.4928 58.64 42.0235 59.12C41.5542 59.6 40.9035 59.84 40.0715 59.84C39.8155 59.84 39.5915 59.824 39.3995 59.792C39.2075 59.7707 39.0422 59.744 38.9035 59.712V58.592C39.0208 58.6133 39.1595 58.6347 39.3195 58.656C39.4902 58.6773 39.6662 58.688 39.8475 58.688C40.3382 58.688 40.7328 58.5493 41.0315 58.272C41.3302 57.9947 41.5702 57.6267 41.7515 57.168L42.1995 56.032L38.7435 47.424ZM58.432 52.944C58.432 53.9573 58.064 54.7467 57.328 55.312C56.592 55.8773 55.6 56.16 54.352 56.16C53.712 56.16 53.12 56.112 52.576 56.016C52.032 55.92 51.5787 55.7867 51.216 55.616V54.24C51.6 54.4107 52.0747 54.5653 52.64 54.704C53.216 54.8427 53.808 54.912 54.416 54.912C55.2587 54.912 55.8987 54.7467 56.336 54.416C56.7733 54.0853 56.992 53.6373 56.992 53.072C56.992 52.6987 56.912 52.384 56.752 52.128C56.592 51.872 56.3147 51.6373 55.92 51.424C55.5253 51.2107 54.9867 50.976 54.304 50.72C53.3227 50.368 52.5867 49.936 52.096 49.424C51.6053 48.912 51.36 48.2133 51.36 47.328C51.36 46.7307 51.5147 46.2133 51.824 45.776C52.1333 45.3387 52.56 45.0027 53.104 44.768C53.648 44.5333 54.2827 44.416 55.008 44.416C55.6267 44.416 56.1973 44.4747 56.72 44.592C57.2427 44.7093 57.7227 44.864 58.16 45.056L57.712 46.288C57.3173 46.1173 56.8853 45.9733 56.416 45.856C55.9467 45.7387 55.4667 45.68 54.976 45.68C54.2613 45.68 53.7227 45.8347 53.36 46.144C52.9973 46.4427 52.816 46.8427 52.816 47.344C52.816 47.728 52.896 48.048 53.056 48.304C53.216 48.56 53.4773 48.7947 53.84 49.008C54.2027 49.2107 54.6933 49.424 55.312 49.648C55.984 49.8933 56.5493 50.16 57.008 50.448C57.4773 50.7253 57.8293 51.0613 58.064 51.456C58.3093 51.8507 58.432 52.3467 58.432 52.944ZM67.6773 51.696C67.6773 53.1147 67.3146 54.2133 66.5893 54.992C65.8746 55.7707 64.9039 56.16 63.6773 56.16C62.9199 56.16 62.2426 55.9893 61.6453 55.648C61.0586 55.296 60.5946 54.7893 60.2533 54.128C59.9119 53.456 59.7413 52.6453 59.7413 51.696C59.7413 50.2773 60.0933 49.184 60.7973 48.416C61.5119 47.648 62.4879 47.264 63.7253 47.264C64.4933 47.264 65.1759 47.44 65.7733 47.792C66.3706 48.1333 66.8346 48.6347 67.1653 49.296C67.5066 49.9467 67.6773 50.7467 67.6773 51.696ZM61.1973 51.696C61.1973 52.7093 61.3946 53.5147 61.7893 54.112C62.1946 54.6987 62.8346 54.992 63.7093 54.992C64.5733 54.992 65.2079 54.6987 65.6133 54.112C66.0186 53.5147 66.2213 52.7093 66.2213 51.696C66.2213 50.6827 66.0186 49.888 65.6133 49.312C65.2079 48.736 64.5679 48.448 63.6933 48.448C62.8186 48.448 62.1839 48.736 61.7893 49.312C61.3946 49.888 61.1973 50.6827 61.1973 51.696ZM73.7167 47.264C74.7407 47.264 75.5141 47.5147 76.0367 48.016C76.5594 48.5173 76.8207 49.3173 76.8207 50.416V56H75.4287V50.512C75.4287 49.136 74.7887 48.448 73.5087 48.448C72.5594 48.448 71.9034 48.7147 71.5407 49.248C71.1781 49.7813 70.9967 50.5493 70.9967 51.552V56H69.5887V47.424H70.7247L70.9327 48.592H71.0127C71.2901 48.144 71.6741 47.8133 72.1647 47.6C72.6554 47.376 73.1727 47.264 73.7167 47.264Z" fill="#D9D9D9"/>
<rect x="0.5" y="0.5" width="99" height="99" rx="49.5" stroke="#D9D9D9" stroke-dasharray="6 6"/>
</svg>
