<svg width="100" height="100" viewBox="0 0 100 100" fill="none" xmlns="http://www.w3.org/2000/svg">
<path d="M16.436 59.04C16.18 59.04 15.956 59.0187 15.764 58.976C15.572 58.944 15.4013 58.896 15.252 58.832V57.616C15.4227 57.6693 15.604 57.7067 15.796 57.728C15.988 57.76 16.1907 57.776 16.404 57.776C16.6707 57.776 16.9213 57.7227 17.156 57.616C17.4013 57.5093 17.5987 57.3227 17.748 57.056C17.8973 56.8 17.972 56.4267 17.972 55.936V44.576H19.412V55.824C19.412 56.9227 19.14 57.7333 18.596 58.256C18.052 58.7787 17.332 59.04 16.436 59.04ZM29.371 51.696C29.371 53.1147 29.0083 54.2133 28.283 54.992C27.5683 55.7707 26.5977 56.16 25.371 56.16C24.6137 56.16 23.9363 55.9893 23.339 55.648C22.7523 55.296 22.2883 54.7893 21.947 54.128C21.6057 53.456 21.435 52.6453 21.435 51.696C21.435 50.2773 21.787 49.184 22.491 48.416C23.2057 47.648 24.1817 47.264 25.419 47.264C26.187 47.264 26.8697 47.44 27.467 47.792C28.0643 48.1333 28.5283 48.6347 28.859 49.296C29.2003 49.9467 29.371 50.7467 29.371 51.696ZM22.891 51.696C22.891 52.7093 23.0883 53.5147 23.483 54.112C23.8883 54.6987 24.5283 54.992 25.403 54.992C26.267 54.992 26.9017 54.6987 27.307 54.112C27.7123 53.5147 27.915 52.7093 27.915 51.696C27.915 50.6827 27.7123 49.888 27.307 49.312C26.9017 48.736 26.2617 48.448 25.387 48.448C24.5123 48.448 23.8777 48.736 23.483 49.312C23.0883 49.888 22.891 50.6827 22.891 51.696ZM32.6905 56H31.2825V43.84H32.6905V56ZM33.7435 47.424H35.2475L37.1035 52.304C37.2635 52.7413 37.4075 53.152 37.5355 53.536C37.6635 53.92 37.7595 54.288 37.8235 54.64H37.8875C37.9515 54.3733 38.0528 54.0267 38.1915 53.6C38.3302 53.1627 38.4742 52.7253 38.6235 52.288L40.3675 47.424H41.8875L38.1915 57.184C37.8822 57.9947 37.4928 58.64 37.0235 59.12C36.5542 59.6 35.9035 59.84 35.0715 59.84C34.8155 59.84 34.5915 59.824 34.3995 59.792C34.2075 59.7707 34.0422 59.744 33.9035 59.712V58.592C34.0208 58.6133 34.1595 58.6347 34.3195 58.656C34.4902 58.6773 34.6662 58.688 34.8475 58.688C35.3382 58.688 35.7328 58.5493 36.0315 58.272C36.3302 57.9947 36.5702 57.6267 36.7515 57.168L37.1995 56.032L33.7435 47.424ZM53.432 52.944C53.432 53.9573 53.064 54.7467 52.328 55.312C51.592 55.8773 50.6 56.16 49.352 56.16C48.712 56.16 48.12 56.112 47.576 56.016C47.032 55.92 46.5787 55.7867 46.216 55.616V54.24C46.6 54.4107 47.0747 54.5653 47.64 54.704C48.216 54.8427 48.808 54.912 49.416 54.912C50.2587 54.912 50.8987 54.7467 51.336 54.416C51.7733 54.0853 51.992 53.6373 51.992 53.072C51.992 52.6987 51.912 52.384 51.752 52.128C51.592 51.872 51.3147 51.6373 50.92 51.424C50.5253 51.2107 49.9867 50.976 49.304 50.72C48.3227 50.368 47.5867 49.936 47.096 49.424C46.6053 48.912 46.36 48.2133 46.36 47.328C46.36 46.7307 46.5147 46.2133 46.824 45.776C47.1333 45.3387 47.56 45.0027 48.104 44.768C48.648 44.5333 49.2827 44.416 50.008 44.416C50.6267 44.416 51.1973 44.4747 51.72 44.592C52.2427 44.7093 52.7227 44.864 53.16 45.056L52.712 46.288C52.3173 46.1173 51.8853 45.9733 51.416 45.856C50.9467 45.7387 50.4667 45.68 49.976 45.68C49.2613 45.68 48.7227 45.8347 48.36 46.144C47.9973 46.4427 47.816 46.8427 47.816 47.344C47.816 47.728 47.896 48.048 48.056 48.304C48.216 48.56 48.4773 48.7947 48.84 49.008C49.2027 49.2107 49.6933 49.424 50.312 49.648C50.984 49.8933 51.5493 50.16 52.008 50.448C52.4773 50.7253 52.8293 51.0613 53.064 51.456C53.3093 51.8507 53.432 52.3467 53.432 52.944ZM59.3013 47.264C60.3573 47.264 61.2053 47.632 61.8453 48.368C62.4959 49.104 62.8213 50.2133 62.8213 51.696C62.8213 53.1573 62.4959 54.2667 61.8453 55.024C61.2053 55.7813 60.3519 56.16 59.2853 56.16C58.6239 56.16 58.0746 56.0373 57.6373 55.792C57.2106 55.5467 56.8746 55.2533 56.6293 54.912H56.5333C56.5439 55.0933 56.5599 55.3227 56.5813 55.6C56.6133 55.8773 56.6293 56.1173 56.6293 56.32V59.84H55.2213V47.424H56.3733L56.5653 48.592H56.6293C56.8853 48.2187 57.2213 47.904 57.6373 47.648C58.0533 47.392 58.6079 47.264 59.3013 47.264ZM59.0453 48.448C58.1706 48.448 57.5519 48.6933 57.1893 49.184C56.8266 49.6747 56.6399 50.4213 56.6293 51.424V51.696C56.6293 52.752 56.7999 53.568 57.1413 54.144C57.4933 54.7093 58.1386 54.992 59.0773 54.992C59.5893 54.992 60.0159 54.8533 60.3573 54.576C60.6986 54.288 60.9493 53.8933 61.1093 53.392C61.2799 52.8907 61.3653 52.32 61.3653 51.68C61.3653 50.6987 61.1733 49.9147 60.7893 49.328C60.4159 48.7413 59.8346 48.448 59.0453 48.448ZM65.465 44.208C65.6783 44.208 65.865 44.2827 66.025 44.432C66.1957 44.5707 66.281 44.7947 66.281 45.104C66.281 45.4133 66.1957 45.6427 66.025 45.792C65.865 45.9307 65.6783 46 65.465 46C65.2303 46 65.033 45.9307 64.873 45.792C64.713 45.6427 64.633 45.4133 64.633 45.104C64.633 44.7947 64.713 44.5707 64.873 44.432C65.033 44.2827 65.2303 44.208 65.465 44.208ZM66.153 47.424V56H64.745V47.424H66.153ZM72.55 47.264C72.71 47.264 72.8807 47.2747 73.062 47.296C73.2433 47.3067 73.4087 47.328 73.558 47.36L73.382 48.656C73.2433 48.624 73.0887 48.5973 72.918 48.576C72.7473 48.5547 72.5927 48.544 72.454 48.544C72.0167 48.544 71.606 48.6667 71.222 48.912C70.838 49.1467 70.5287 49.4827 70.294 49.92C70.07 50.3467 69.958 50.848 69.958 51.424V56H68.55V47.424H69.702L69.862 48.992H69.926C70.1927 48.5227 70.5447 48.1173 70.982 47.776C71.43 47.4347 71.9527 47.264 72.55 47.264ZM75.5594 44.208C75.7727 44.208 75.9594 44.2827 76.1194 44.432C76.29 44.5707 76.3754 44.7947 76.3754 45.104C76.3754 45.4133 76.29 45.6427 76.1194 45.792C75.9594 45.9307 75.7727 46 75.5594 46C75.3247 46 75.1274 45.9307 74.9674 45.792C74.8074 45.6427 74.7274 45.4133 74.7274 45.104C74.7274 44.7947 74.8074 44.5707 74.9674 44.432C75.1274 44.2827 75.3247 44.208 75.5594 44.208ZM76.2474 47.424V56H74.8394V47.424H76.2474ZM81.5084 55.008C81.7217 55.008 81.9404 54.992 82.1644 54.96C82.3884 54.928 82.5697 54.8853 82.7084 54.832V55.904C82.559 55.9787 82.3457 56.0373 82.0684 56.08C81.791 56.1333 81.5244 56.16 81.2684 56.16C80.8204 56.16 80.4044 56.0853 80.0204 55.936C79.647 55.776 79.343 55.504 79.1084 55.12C78.8737 54.736 78.7564 54.1973 78.7564 53.504V48.512H77.5404V47.84L78.7724 47.28L79.3324 45.456H80.1644V47.424H82.6444V48.512H80.1644V53.472C80.1644 53.9947 80.287 54.384 80.5324 54.64C80.7884 54.8853 81.1137 55.008 81.5084 55.008Z" fill="#D9D9D9"/>
<rect x="0.5" y="0.5" width="99" height="99" rx="49.5" stroke="#D9D9D9" stroke-dasharray="6 6"/>
</svg>
