<svg width="100" height="100" viewBox="0 0 100 100" fill="none" xmlns="http://www.w3.org/2000/svg">
<path d="M11.936 59.04C11.68 59.04 11.456 59.0187 11.264 58.976C11.072 58.944 10.9013 58.896 10.752 58.832V57.616C10.9227 57.6693 11.104 57.7067 11.296 57.728C11.488 57.76 11.6907 57.776 11.904 57.776C12.1707 57.776 12.4213 57.7227 12.656 57.616C12.9013 57.5093 13.0987 57.3227 13.248 57.056C13.3973 56.8 13.472 56.4267 13.472 55.936V44.576H14.912V55.824C14.912 56.9227 14.64 57.7333 14.096 58.256C13.552 58.7787 12.832 59.04 11.936 59.04ZM24.871 51.696C24.871 53.1147 24.5083 54.2133 23.783 54.992C23.0683 55.7707 22.0977 56.16 20.871 56.16C20.1137 56.16 19.4363 55.9893 18.839 55.648C18.2523 55.296 17.7883 54.7893 17.447 54.128C17.1057 53.456 16.935 52.6453 16.935 51.696C16.935 50.2773 17.287 49.184 17.991 48.416C18.7057 47.648 19.6817 47.264 20.919 47.264C21.687 47.264 22.3697 47.44 22.967 47.792C23.5643 48.1333 24.0283 48.6347 24.359 49.296C24.7003 49.9467 24.871 50.7467 24.871 51.696ZM18.391 51.696C18.391 52.7093 18.5883 53.5147 18.983 54.112C19.3883 54.6987 20.0283 54.992 20.903 54.992C21.767 54.992 22.4017 54.6987 22.807 54.112C23.2123 53.5147 23.415 52.7093 23.415 51.696C23.415 50.6827 23.2123 49.888 22.807 49.312C22.4017 48.736 21.7617 48.448 20.887 48.448C20.0123 48.448 19.3777 48.736 18.983 49.312C18.5883 49.888 18.391 50.6827 18.391 51.696ZM28.1905 56H26.7825V43.84H28.1905V56ZM29.2435 47.424H30.7475L32.6035 52.304C32.7635 52.7413 32.9075 53.152 33.0355 53.536C33.1635 53.92 33.2595 54.288 33.3235 54.64H33.3875C33.4515 54.3733 33.5528 54.0267 33.6915 53.6C33.8302 53.1627 33.9742 52.7253 34.1235 52.288L35.8675 47.424H37.3875L33.6915 57.184C33.3822 57.9947 32.9928 58.64 32.5235 59.12C32.0542 59.6 31.4035 59.84 30.5715 59.84C30.3155 59.84 30.0915 59.824 29.8995 59.792C29.7075 59.7707 29.5422 59.744 29.4035 59.712V58.592C29.5208 58.6133 29.6595 58.6347 29.8195 58.656C29.9902 58.6773 30.1662 58.688 30.3475 58.688C30.8382 58.688 31.2328 58.5493 31.5315 58.272C31.8302 57.9947 32.0702 57.6267 32.2515 57.168L32.6995 56.032L29.2435 47.424ZM43.892 56H42.452V44.576H48.836V45.84H43.892V49.888H48.532V51.152H43.892V56ZM53.4849 47.28C54.5302 47.28 55.3035 47.5093 55.8049 47.968C56.3062 48.4267 56.5569 49.1573 56.5569 50.16V56H55.5329L55.2609 54.784H55.1969C54.8235 55.2533 54.4289 55.6 54.0129 55.824C53.5969 56.048 53.0315 56.16 52.3169 56.16C51.5382 56.16 50.8929 55.9573 50.3809 55.552C49.8689 55.136 49.6129 54.4907 49.6129 53.616C49.6129 52.7627 49.9489 52.1067 50.6209 51.648C51.2929 51.1787 52.3275 50.9227 53.7249 50.88L55.1809 50.832V50.32C55.1809 49.6053 55.0262 49.1093 54.7169 48.832C54.4075 48.5547 53.9702 48.416 53.4049 48.416C52.9569 48.416 52.5302 48.4853 52.1249 48.624C51.7195 48.752 51.3409 48.9013 50.9889 49.072L50.5569 48.016C50.9302 47.8133 51.3729 47.6427 51.8849 47.504C52.3969 47.3547 52.9302 47.28 53.4849 47.28ZM55.1649 51.808L53.9009 51.856C52.8342 51.8987 52.0929 52.0693 51.6769 52.368C51.2715 52.6667 51.0689 53.088 51.0689 53.632C51.0689 54.112 51.2129 54.464 51.5009 54.688C51.7995 54.912 52.1782 55.024 52.6369 55.024C53.3515 55.024 53.9489 54.8267 54.4289 54.432C54.9195 54.0267 55.1649 53.408 55.1649 52.576V51.808ZM61.7496 55.008C61.963 55.008 62.1816 54.992 62.4056 54.96C62.6296 54.928 62.811 54.8853 62.9496 54.832V55.904C62.8003 55.9787 62.587 56.0373 62.3096 56.08C62.0323 56.1333 61.7656 56.16 61.5096 56.16C61.0616 56.16 60.6456 56.0853 60.2616 55.936C59.8883 55.776 59.5843 55.504 59.3496 55.12C59.115 54.736 58.9976 54.1973 58.9976 53.504V48.512H57.7816V47.84L59.0136 47.28L59.5736 45.456H60.4056V47.424H62.8856V48.512H60.4056V53.472C60.4056 53.9947 60.5283 54.384 60.7736 54.64C61.0296 54.8853 61.355 55.008 61.7496 55.008ZM65.7549 43.84V47.408C65.7549 47.8347 65.7282 48.2347 65.6749 48.608H65.7709C66.0482 48.1707 66.4215 47.84 66.8909 47.616C67.3709 47.392 67.8882 47.28 68.4429 47.28C69.4775 47.28 70.2562 47.5307 70.7789 48.032C71.3122 48.5227 71.5789 49.3173 71.5789 50.416V56H70.1869V50.512C70.1869 49.136 69.5469 48.448 68.2669 48.448C67.3069 48.448 66.6455 48.72 66.2829 49.264C65.9309 49.7973 65.7549 50.5653 65.7549 51.568V56H64.3469V43.84H65.7549ZM77.2295 47.264C77.9548 47.264 78.5842 47.424 79.1175 47.744C79.6508 48.064 80.0562 48.5173 80.3335 49.104C80.6215 49.68 80.7655 50.3573 80.7655 51.136V51.984H74.8935C74.9148 52.9547 75.1602 53.696 75.6295 54.208C76.1095 54.7093 76.7762 54.96 77.6295 54.96C78.1735 54.96 78.6535 54.912 79.0695 54.816C79.4962 54.7093 79.9335 54.56 80.3815 54.368V55.6C79.9442 55.792 79.5122 55.9307 79.0855 56.016C78.6588 56.112 78.1522 56.16 77.5655 56.16C76.7442 56.16 76.0242 55.9947 75.4055 55.664C74.7868 55.3333 74.3015 54.8427 73.9495 54.192C73.6082 53.5413 73.4375 52.736 73.4375 51.776C73.4375 50.8373 73.5922 50.032 73.9015 49.36C74.2215 48.688 74.6642 48.1707 75.2295 47.808C75.8055 47.4453 76.4722 47.264 77.2295 47.264ZM77.2135 48.416C76.5415 48.416 76.0082 48.6347 75.6135 49.072C75.2295 49.4987 75.0002 50.096 74.9255 50.864H79.2935C79.2828 50.1387 79.1122 49.552 78.7815 49.104C78.4508 48.6453 77.9282 48.416 77.2135 48.416ZM86.6288 47.264C86.7888 47.264 86.9594 47.2747 87.1408 47.296C87.3221 47.3067 87.4874 47.328 87.6368 47.36L87.4608 48.656C87.3221 48.624 87.1674 48.5973 86.9968 48.576C86.8261 48.5547 86.6714 48.544 86.5328 48.544C86.0954 48.544 85.6848 48.6667 85.3008 48.912C84.9168 49.1467 84.6074 49.4827 84.3728 49.92C84.1488 50.3467 84.0368 50.848 84.0368 51.424V56H82.6288V47.424H83.7808L83.9408 48.992H84.0048C84.2714 48.5227 84.6234 48.1173 85.0608 47.776C85.5088 47.4347 86.0314 47.264 86.6288 47.264Z" fill="#D9D9D9"/>
<rect x="0.5" y="0.5" width="99" height="99" rx="49.5" stroke="#D9D9D9" stroke-dasharray="6 6"/>
</svg>
