<svg width="1340" height="645" viewBox="0 0 1340 645" fill="none" xmlns="http://www.w3.org/2000/svg">
<path d="M625.288 56H623.848V50.672H617.992V56H616.552V44.576H617.992V49.408H623.848V44.576H625.288V56ZM635.355 51.696C635.355 53.1147 634.993 54.2133 634.267 54.992C633.553 55.7707 632.582 56.16 631.355 56.16C630.598 56.16 629.921 55.9893 629.323 55.648C628.737 55.296 628.273 54.7893 627.931 54.128C627.59 53.456 627.419 52.6453 627.419 51.696C627.419 50.2773 627.771 49.184 628.475 48.416C629.19 47.648 630.166 47.264 631.403 47.264C632.171 47.264 632.854 47.44 633.451 47.792C634.049 48.1333 634.513 48.6347 634.843 49.296C635.185 49.9467 635.355 50.7467 635.355 51.696ZM628.875 51.696C628.875 52.7093 629.073 53.5147 629.467 54.112C629.873 54.6987 630.513 54.992 631.387 54.992C632.251 54.992 632.886 54.6987 633.291 54.112C633.697 53.5147 633.899 52.7093 633.899 51.696C633.899 50.6827 633.697 49.888 633.291 49.312C632.886 48.736 632.246 48.448 631.371 48.448C630.497 48.448 629.862 48.736 629.467 49.312C629.073 49.888 628.875 50.6827 628.875 51.696ZM638.675 56H637.267V43.84H638.675V56ZM639.728 47.424H641.232L643.088 52.304C643.248 52.7413 643.392 53.152 643.52 53.536C643.648 53.92 643.744 54.288 643.808 54.64H643.872C643.936 54.3733 644.037 54.0267 644.176 53.6C644.315 53.1627 644.459 52.7253 644.608 52.288L646.352 47.424H647.872L644.176 57.184C643.867 57.9947 643.477 58.64 643.008 59.12C642.539 59.6 641.888 59.84 641.056 59.84C640.8 59.84 640.576 59.824 640.384 59.792C640.192 59.7707 640.027 59.744 639.888 59.712V58.592C640.005 58.6133 640.144 58.6347 640.304 58.656C640.475 58.6773 640.651 58.688 640.832 58.688C641.323 58.688 641.717 58.5493 642.016 58.272C642.315 57.9947 642.555 57.6267 642.736 57.168L643.184 56.032L639.728 47.424ZM654.376 56H652.936V44.576H659.32V45.84H654.376V49.888H659.016V51.152H654.376V56ZM663.969 47.28C665.015 47.28 665.788 47.5093 666.289 47.968C666.791 48.4267 667.041 49.1573 667.041 50.16V56H666.017L665.745 54.784H665.681C665.308 55.2533 664.913 55.6 664.497 55.824C664.081 56.048 663.516 56.16 662.801 56.16C662.023 56.16 661.377 55.9573 660.865 55.552C660.353 55.136 660.097 54.4907 660.097 53.616C660.097 52.7627 660.433 52.1067 661.105 51.648C661.777 51.1787 662.812 50.9227 664.209 50.88L665.665 50.832V50.32C665.665 49.6053 665.511 49.1093 665.201 48.832C664.892 48.5547 664.455 48.416 663.889 48.416C663.441 48.416 663.015 48.4853 662.609 48.624C662.204 48.752 661.825 48.9013 661.473 49.072L661.041 48.016C661.415 47.8133 661.857 47.6427 662.369 47.504C662.881 47.3547 663.415 47.28 663.969 47.28ZM665.649 51.808L664.385 51.856C663.319 51.8987 662.577 52.0693 662.161 52.368C661.756 52.6667 661.553 53.088 661.553 53.632C661.553 54.112 661.697 54.464 661.985 54.688C662.284 54.912 662.663 55.024 663.121 55.024C663.836 55.024 664.433 54.8267 664.913 54.432C665.404 54.0267 665.649 53.408 665.649 52.576V51.808ZM672.234 55.008C672.447 55.008 672.666 54.992 672.89 54.96C673.114 54.928 673.295 54.8853 673.434 54.832V55.904C673.285 55.9787 673.071 56.0373 672.794 56.08C672.517 56.1333 672.25 56.16 671.994 56.16C671.546 56.16 671.13 56.0853 670.746 55.936C670.373 55.776 670.069 55.504 669.834 55.12C669.599 54.736 669.482 54.1973 669.482 53.504V48.512H668.266V47.84L669.498 47.28L670.058 45.456H670.89V47.424H673.37V48.512H670.89V53.472C670.89 53.9947 671.013 54.384 671.258 54.64C671.514 54.8853 671.839 55.008 672.234 55.008ZM676.239 43.84V47.408C676.239 47.8347 676.213 48.2347 676.159 48.608H676.255C676.533 48.1707 676.906 47.84 677.375 47.616C677.855 47.392 678.373 47.28 678.927 47.28C679.962 47.28 680.741 47.5307 681.263 48.032C681.797 48.5227 682.063 49.3173 682.063 50.416V56H680.671V50.512C680.671 49.136 680.031 48.448 678.751 48.448C677.791 48.448 677.13 48.72 676.767 49.264C676.415 49.7973 676.239 50.5653 676.239 51.568V56H674.831V43.84H676.239ZM687.714 47.264C688.439 47.264 689.069 47.424 689.602 47.744C690.135 48.064 690.541 48.5173 690.818 49.104C691.106 49.68 691.25 50.3573 691.25 51.136V51.984H685.378C685.399 52.9547 685.645 53.696 686.114 54.208C686.594 54.7093 687.261 54.96 688.114 54.96C688.658 54.96 689.138 54.912 689.554 54.816C689.981 54.7093 690.418 54.56 690.866 54.368V55.6C690.429 55.792 689.997 55.9307 689.57 56.016C689.143 56.112 688.637 56.16 688.05 56.16C687.229 56.16 686.509 55.9947 685.89 55.664C685.271 55.3333 684.786 54.8427 684.434 54.192C684.093 53.5413 683.922 52.736 683.922 51.776C683.922 50.8373 684.077 50.032 684.386 49.36C684.706 48.688 685.149 48.1707 685.714 47.808C686.29 47.4453 686.957 47.264 687.714 47.264ZM687.698 48.416C687.026 48.416 686.493 48.6347 686.098 49.072C685.714 49.4987 685.485 50.096 685.41 50.864H689.778C689.767 50.1387 689.597 49.552 689.266 49.104C688.935 48.6453 688.413 48.416 687.698 48.416ZM697.113 47.264C697.273 47.264 697.444 47.2747 697.625 47.296C697.806 47.3067 697.972 47.328 698.121 47.36L697.945 48.656C697.806 48.624 697.652 48.5973 697.481 48.576C697.31 48.5547 697.156 48.544 697.017 48.544C696.58 48.544 696.169 48.6667 695.785 48.912C695.401 49.1467 695.092 49.4827 694.857 49.92C694.633 50.3467 694.521 50.848 694.521 51.424V56H693.113V47.424H694.265L694.425 48.992H694.489C694.756 48.5227 695.108 48.1173 695.545 47.776C695.993 47.4347 696.516 47.264 697.113 47.264Z" fill="#D9D9D9"/>
<rect x="607.5" y="0.5" width="99" height="99" rx="49.5" stroke="#D9D9D9" stroke-dasharray="6 6"/>
<path d="M1262.79 601H1261.35V595.672H1255.49V601H1254.05V589.576H1255.49V594.408H1261.35V589.576H1262.79V601ZM1272.86 596.696C1272.86 598.115 1272.49 599.213 1271.77 599.992C1271.05 600.771 1270.08 601.16 1268.86 601.16C1268.1 601.16 1267.42 600.989 1266.82 600.648C1266.24 600.296 1265.77 599.789 1265.43 599.128C1265.09 598.456 1264.92 597.645 1264.92 596.696C1264.92 595.277 1265.27 594.184 1265.98 593.416C1266.69 592.648 1267.67 592.264 1268.9 592.264C1269.67 592.264 1270.35 592.44 1270.95 592.792C1271.55 593.133 1272.01 593.635 1272.34 594.296C1272.68 594.947 1272.86 595.747 1272.86 596.696ZM1266.38 596.696C1266.38 597.709 1266.57 598.515 1266.97 599.112C1267.37 599.699 1268.01 599.992 1268.89 599.992C1269.75 599.992 1270.39 599.699 1270.79 599.112C1271.2 598.515 1271.4 597.709 1271.4 596.696C1271.4 595.683 1271.2 594.888 1270.79 594.312C1270.39 593.736 1269.75 593.448 1268.87 593.448C1268 593.448 1267.36 593.736 1266.97 594.312C1266.57 594.888 1266.38 595.683 1266.38 596.696ZM1276.17 601H1274.77V588.84H1276.17V601ZM1277.23 592.424H1278.73L1280.59 597.304C1280.75 597.741 1280.89 598.152 1281.02 598.536C1281.15 598.92 1281.24 599.288 1281.31 599.64H1281.37C1281.44 599.373 1281.54 599.027 1281.68 598.6C1281.81 598.163 1281.96 597.725 1282.11 597.288L1283.85 592.424H1285.37L1281.68 602.184C1281.37 602.995 1280.98 603.64 1280.51 604.12C1280.04 604.6 1279.39 604.84 1278.56 604.84C1278.3 604.84 1278.08 604.824 1277.88 604.792C1277.69 604.771 1277.53 604.744 1277.39 604.712V603.592C1277.51 603.613 1277.64 603.635 1277.8 603.656C1277.97 603.677 1278.15 603.688 1278.33 603.688C1278.82 603.688 1279.22 603.549 1279.52 603.272C1279.81 602.995 1280.05 602.627 1280.24 602.168L1280.68 601.032L1277.23 592.424ZM1296.92 597.944C1296.92 598.957 1296.55 599.747 1295.81 600.312C1295.08 600.877 1294.08 601.16 1292.84 601.16C1292.2 601.16 1291.6 601.112 1291.06 601.016C1290.52 600.92 1290.06 600.787 1289.7 600.616V599.24C1290.08 599.411 1290.56 599.565 1291.12 599.704C1291.7 599.843 1292.29 599.912 1292.9 599.912C1293.74 599.912 1294.38 599.747 1294.82 599.416C1295.26 599.085 1295.48 598.637 1295.48 598.072C1295.48 597.699 1295.4 597.384 1295.24 597.128C1295.08 596.872 1294.8 596.637 1294.4 596.424C1294.01 596.211 1293.47 595.976 1292.79 595.72C1291.81 595.368 1291.07 594.936 1290.58 594.424C1290.09 593.912 1289.84 593.213 1289.84 592.328C1289.84 591.731 1290 591.213 1290.31 590.776C1290.62 590.339 1291.04 590.003 1291.59 589.768C1292.13 589.533 1292.77 589.416 1293.49 589.416C1294.11 589.416 1294.68 589.475 1295.2 589.592C1295.73 589.709 1296.21 589.864 1296.64 590.056L1296.2 591.288C1295.8 591.117 1295.37 590.973 1294.9 590.856C1294.43 590.739 1293.95 590.68 1293.46 590.68C1292.75 590.68 1292.21 590.835 1291.84 591.144C1291.48 591.443 1291.3 591.843 1291.3 592.344C1291.3 592.728 1291.38 593.048 1291.54 593.304C1291.7 593.56 1291.96 593.795 1292.32 594.008C1292.69 594.211 1293.18 594.424 1293.8 594.648C1294.47 594.893 1295.03 595.16 1295.49 595.448C1295.96 595.725 1296.31 596.061 1296.55 596.456C1296.79 596.851 1296.92 597.347 1296.92 597.944ZM1302.79 592.264C1303.84 592.264 1304.69 592.632 1305.33 593.368C1305.98 594.104 1306.31 595.213 1306.31 596.696C1306.31 598.157 1305.98 599.267 1305.33 600.024C1304.69 600.781 1303.84 601.16 1302.77 601.16C1302.11 601.16 1301.56 601.037 1301.12 600.792C1300.69 600.547 1300.36 600.253 1300.11 599.912H1300.02C1300.03 600.093 1300.04 600.323 1300.07 600.6C1300.1 600.877 1300.11 601.117 1300.11 601.32V604.84H1298.71V592.424H1299.86L1300.05 593.592H1300.11C1300.37 593.219 1300.71 592.904 1301.12 592.648C1301.54 592.392 1302.09 592.264 1302.79 592.264ZM1302.53 593.448C1301.65 593.448 1301.04 593.693 1300.67 594.184C1300.31 594.675 1300.12 595.421 1300.11 596.424V596.696C1300.11 597.752 1300.28 598.568 1300.63 599.144C1300.98 599.709 1301.62 599.992 1302.56 599.992C1303.07 599.992 1303.5 599.853 1303.84 599.576C1304.18 599.288 1304.43 598.893 1304.59 598.392C1304.76 597.891 1304.85 597.32 1304.85 596.68C1304.85 595.699 1304.66 594.915 1304.27 594.328C1303.9 593.741 1303.32 593.448 1302.53 593.448ZM1308.95 589.208C1309.16 589.208 1309.35 589.283 1309.51 589.432C1309.68 589.571 1309.77 589.795 1309.77 590.104C1309.77 590.413 1309.68 590.643 1309.51 590.792C1309.35 590.931 1309.16 591 1308.95 591C1308.71 591 1308.52 590.931 1308.36 590.792C1308.2 590.643 1308.12 590.413 1308.12 590.104C1308.12 589.795 1308.2 589.571 1308.36 589.432C1308.52 589.283 1308.71 589.208 1308.95 589.208ZM1309.64 592.424V601H1308.23V592.424H1309.64ZM1316.03 592.264C1316.19 592.264 1316.37 592.275 1316.55 592.296C1316.73 592.307 1316.89 592.328 1317.04 592.36L1316.87 593.656C1316.73 593.624 1316.57 593.597 1316.4 593.576C1316.23 593.555 1316.08 593.544 1315.94 593.544C1315.5 593.544 1315.09 593.667 1314.71 593.912C1314.32 594.147 1314.01 594.483 1313.78 594.92C1313.55 595.347 1313.44 595.848 1313.44 596.424V601H1312.03V592.424H1313.19L1313.35 593.992H1313.41C1313.68 593.523 1314.03 593.117 1314.47 592.776C1314.91 592.435 1315.44 592.264 1316.03 592.264ZM1319.04 589.208C1319.26 589.208 1319.44 589.283 1319.6 589.432C1319.77 589.571 1319.86 589.795 1319.86 590.104C1319.86 590.413 1319.77 590.643 1319.6 590.792C1319.44 590.931 1319.26 591 1319.04 591C1318.81 591 1318.61 590.931 1318.45 590.792C1318.29 590.643 1318.21 590.413 1318.21 590.104C1318.21 589.795 1318.29 589.571 1318.45 589.432C1318.61 589.283 1318.81 589.208 1319.04 589.208ZM1319.73 592.424V601H1318.32V592.424H1319.73ZM1324.99 600.008C1325.21 600.008 1325.42 599.992 1325.65 599.96C1325.87 599.928 1326.05 599.885 1326.19 599.832V600.904C1326.04 600.979 1325.83 601.037 1325.55 601.08C1325.28 601.133 1325.01 601.16 1324.75 601.16C1324.3 601.16 1323.89 601.085 1323.5 600.936C1323.13 600.776 1322.83 600.504 1322.59 600.12C1322.36 599.736 1322.24 599.197 1322.24 598.504V593.512H1321.02V592.84L1322.26 592.28L1322.82 590.456H1323.65V592.424H1326.13V593.512H1323.65V598.472C1323.65 598.995 1323.77 599.384 1324.02 599.64C1324.27 599.885 1324.6 600.008 1324.99 600.008Z" fill="#D9D9D9"/>
<rect x="1240.5" y="545.5" width="99" height="99" rx="49.5" stroke="#D9D9D9" stroke-dasharray="6 6"/>
<path d="M27.788 601H26.348V595.672H20.492V601H19.052V589.576H20.492V594.408H26.348V589.576H27.788V601ZM37.8554 596.696C37.8554 598.115 37.4927 599.213 36.7674 599.992C36.0527 600.771 35.082 601.16 33.8554 601.16C33.098 601.16 32.4207 600.989 31.8234 600.648C31.2367 600.296 30.7727 599.789 30.4314 599.128C30.09 598.456 29.9194 597.645 29.9194 596.696C29.9194 595.277 30.2714 594.184 30.9754 593.416C31.69 592.648 32.666 592.264 33.9034 592.264C34.6714 592.264 35.354 592.44 35.9514 592.792C36.5487 593.133 37.0127 593.635 37.3434 594.296C37.6847 594.947 37.8554 595.747 37.8554 596.696ZM31.3754 596.696C31.3754 597.709 31.5727 598.515 31.9674 599.112C32.3727 599.699 33.0127 599.992 33.8874 599.992C34.7514 599.992 35.386 599.699 35.7914 599.112C36.1967 598.515 36.3994 597.709 36.3994 596.696C36.3994 595.683 36.1967 594.888 35.7914 594.312C35.386 593.736 34.746 593.448 33.8714 593.448C32.9967 593.448 32.362 593.736 31.9674 594.312C31.5727 594.888 31.3754 595.683 31.3754 596.696ZM41.1749 601H39.7669V588.84H41.1749V601ZM42.2279 592.424H43.7319L45.5879 597.304C45.7479 597.741 45.8919 598.152 46.0199 598.536C46.1479 598.92 46.2439 599.288 46.3079 599.64H46.3719C46.4359 599.373 46.5372 599.027 46.6759 598.6C46.8145 598.163 46.9585 597.725 47.1079 597.288L48.8519 592.424H50.3719L46.6759 602.184C46.3665 602.995 45.9772 603.64 45.5079 604.12C45.0385 604.6 44.3879 604.84 43.5559 604.84C43.2999 604.84 43.0759 604.824 42.8839 604.792C42.6919 604.771 42.5265 604.744 42.3879 604.712V603.592C42.5052 603.613 42.6439 603.635 42.8039 603.656C42.9745 603.677 43.1505 603.688 43.3319 603.688C43.8225 603.688 44.2172 603.549 44.5159 603.272C44.8145 602.995 45.0545 602.627 45.2359 602.168L45.6839 601.032L42.2279 592.424ZM61.9164 597.944C61.9164 598.957 61.5484 599.747 60.8124 600.312C60.0764 600.877 59.0844 601.16 57.8364 601.16C57.1964 601.16 56.6044 601.112 56.0604 601.016C55.5164 600.92 55.063 600.787 54.7004 600.616V599.24C55.0844 599.411 55.559 599.565 56.1244 599.704C56.7004 599.843 57.2924 599.912 57.9004 599.912C58.743 599.912 59.383 599.747 59.8204 599.416C60.2577 599.085 60.4764 598.637 60.4764 598.072C60.4764 597.699 60.3964 597.384 60.2364 597.128C60.0764 596.872 59.799 596.637 59.4044 596.424C59.0097 596.211 58.471 595.976 57.7884 595.72C56.807 595.368 56.071 594.936 55.5804 594.424C55.0897 593.912 54.8444 593.213 54.8444 592.328C54.8444 591.731 54.999 591.213 55.3084 590.776C55.6177 590.339 56.0444 590.003 56.5884 589.768C57.1324 589.533 57.767 589.416 58.4924 589.416C59.111 589.416 59.6817 589.475 60.2044 589.592C60.727 589.709 61.207 589.864 61.6444 590.056L61.1964 591.288C60.8017 591.117 60.3697 590.973 59.9004 590.856C59.431 590.739 58.951 590.68 58.4604 590.68C57.7457 590.68 57.207 590.835 56.8444 591.144C56.4817 591.443 56.3004 591.843 56.3004 592.344C56.3004 592.728 56.3804 593.048 56.5404 593.304C56.7004 593.56 56.9617 593.795 57.3244 594.008C57.687 594.211 58.1777 594.424 58.7964 594.648C59.4684 594.893 60.0337 595.16 60.4924 595.448C60.9617 595.725 61.3137 596.061 61.5484 596.456C61.7937 596.851 61.9164 597.347 61.9164 597.944ZM71.1616 596.696C71.1616 598.115 70.799 599.213 70.0736 599.992C69.359 600.771 68.3883 601.16 67.1616 601.16C66.4043 601.16 65.727 600.989 65.1296 600.648C64.543 600.296 64.079 599.789 63.7376 599.128C63.3963 598.456 63.2256 597.645 63.2256 596.696C63.2256 595.277 63.5776 594.184 64.2816 593.416C64.9963 592.648 65.9723 592.264 67.2096 592.264C67.9776 592.264 68.6603 592.44 69.2576 592.792C69.855 593.133 70.319 593.635 70.6496 594.296C70.991 594.947 71.1616 595.747 71.1616 596.696ZM64.6816 596.696C64.6816 597.709 64.879 598.515 65.2736 599.112C65.679 599.699 66.319 599.992 67.1936 599.992C68.0576 599.992 68.6923 599.699 69.0976 599.112C69.503 598.515 69.7056 597.709 69.7056 596.696C69.7056 595.683 69.503 594.888 69.0976 594.312C68.6923 593.736 68.0523 593.448 67.1776 593.448C66.303 593.448 65.6683 593.736 65.2736 594.312C64.879 594.888 64.6816 595.683 64.6816 596.696ZM77.2011 592.264C78.2251 592.264 78.9985 592.515 79.5211 593.016C80.0438 593.517 80.3051 594.317 80.3051 595.416V601H78.9131V595.512C78.9131 594.136 78.2731 593.448 76.9931 593.448C76.0438 593.448 75.3878 593.715 75.0251 594.248C74.6625 594.781 74.4811 595.549 74.4811 596.552V601H73.0731V592.424H74.2091L74.4171 593.592H74.4971C74.7745 593.144 75.1585 592.813 75.6491 592.6C76.1398 592.376 76.6571 592.264 77.2011 592.264Z" fill="#D9D9D9"/>
<rect x="0.5" y="545.5" width="99" height="99" rx="49.5" stroke="#D9D9D9" stroke-dasharray="6 6"/>
</svg>
