<svg width="62" height="20" viewBox="0 0 62 20" fill="none" xmlns="http://www.w3.org/2000/svg">
<path d="M18.3337 10.0003C18.3337 5.40033 14.6003 1.66699 10.0003 1.66699C5.40033 1.66699 1.66699 5.40033 1.66699 10.0003C1.66699 14.0337 4.53366 17.392 8.33366 18.167V12.5003H6.66699V10.0003H8.33366V7.91699C8.33366 6.30866 9.64199 5.00033 11.2503 5.00033H13.3337V7.50033H11.667C11.2087 7.50033 10.8337 7.87533 10.8337 8.33366V10.0003H13.3337V12.5003H10.8337V18.292C15.042 17.8753 18.3337 14.3253 18.3337 10.0003Z" fill="#111111"/>
<path d="M31 1C35.9757 1 40 5.02429 40 10C40 14.9757 35.9757 19 31 19C26.0243 19 22 14.9757 22 10C22 5.02429 26.0243 1 31 1ZM29.3543 14.7443C33.34 14.7443 35.5257 11.44 35.5257 8.57286V8.29C35.95 7.98143 36.3229 7.59571 36.6057 7.15857C36.22 7.32571 35.7957 7.44143 35.3586 7.50571C35.8086 7.23571 36.1557 6.81143 36.31 6.31C35.8857 6.55429 35.4229 6.73429 34.9343 6.83714C34.5357 6.41286 33.97 6.15571 33.3529 6.15571C32.1571 6.15571 31.18 7.13286 31.18 8.32857C31.18 8.49571 31.1929 8.66286 31.2443 8.81714C29.4443 8.72714 27.8371 7.86571 26.77 6.55429C26.59 6.87571 26.4743 7.24857 26.4743 7.64714C26.4743 8.39286 26.86 9.06143 27.4386 9.44714C27.0786 9.44714 26.7443 9.34429 26.4614 9.17714V9.20286C26.4614 10.2571 27.2071 11.1314 28.1971 11.3371C28.0171 11.3886 27.8243 11.4143 27.6314 11.4143C27.49 11.4143 27.3614 11.4014 27.22 11.3757C27.49 12.2371 28.3 12.8671 29.2386 12.88C28.4929 13.4586 27.5543 13.8057 26.5386 13.8057C26.3586 13.8057 26.1914 13.8057 26.0243 13.78C26.9757 14.3971 28.12 14.7571 29.3414 14.7571" fill="#111111"/>
<path d="M58.667 3.33301H45.3337C44.417 3.33301 43.6753 4.08301 43.6753 4.99967L43.667 14.9997C43.667 15.9163 44.417 16.6663 45.3337 16.6663H58.667C59.5837 16.6663 60.3337 15.9163 60.3337 14.9997V4.99967C60.3337 4.08301 59.5837 3.33301 58.667 3.33301ZM58.3337 6.87467L52.442 10.558C52.1753 10.7247 51.8253 10.7247 51.5587 10.558L45.667 6.87467C45.5834 6.82777 45.5103 6.76439 45.4519 6.68839C45.3935 6.61238 45.3512 6.52532 45.3275 6.43248C45.3037 6.33964 45.2991 6.24295 45.3138 6.14826C45.3285 6.05357 45.3623 5.96285 45.4131 5.88159C45.4638 5.80033 45.5306 5.73022 45.6093 5.6755C45.6879 5.62079 45.7769 5.5826 45.8707 5.56326C45.9646 5.54391 46.0614 5.54381 46.1553 5.56296C46.2492 5.58212 46.3382 5.62012 46.417 5.67467L52.0003 9.16634L57.5837 5.67467C57.6624 5.62012 57.7515 5.58212 57.8454 5.56296C57.9393 5.54381 58.0361 5.54391 58.1299 5.56326C58.2238 5.5826 58.3127 5.62079 58.3914 5.6755C58.4701 5.73022 58.5368 5.80033 58.5876 5.88159C58.6384 5.96285 58.6722 6.05357 58.6869 6.14826C58.7016 6.24295 58.6969 6.33964 58.6732 6.43248C58.6494 6.52532 58.6071 6.61238 58.5488 6.68839C58.4904 6.76439 58.4172 6.82777 58.3337 6.87467Z" fill="#111111"/>
</svg>
