<svg width="557" height="48" viewBox="0 0 557 48" fill="none" xmlns="http://www.w3.org/2000/svg">
<path d="M30 24.37C30 16.58 36.66 13 45.4 13C54.67 13 59.82 16.47 60.8 22.44L48.9 24.37C48.9 22.66 47.3 21.96 45.4 21.96C43.38 21.96 41.9 22.74 41.9 24.31C41.9 25.88 43.38 26.72 45.4 26.72C47.42 26.72 48.9 25.91 48.9 24.37L60.8 25.57C59.99 31.09 55.37 35.68 45.4 35.68C35.43 35.68 30 30.98 30 24.37Z" fill="white"/>
<path d="M88.8599 24.45V34.84H77.2399V28.01C77.2399 28.01 77.2099 27.95 77.1799 27.95H73.3399C73.3399 27.95 73.3099 27.98 73.3099 28.01V34.84H61.6899V13.84H73.3099V22.02C73.3099 22.02 73.3099 22.08 73.3399 22.08H77.1799C77.1799 22.08 77.2399 22.05 77.2399 22.02V13.84H88.8599V24.45Z" fill="white"/>
<path d="M89.9702 13.84H101.59V24.87C101.59 25.99 102.65 26.55 103.69 26.55C104.73 26.55 105.79 25.99 105.79 24.9V13.84H117.41V27.08C117.41 32.82 110.55 35.68 103.69 35.68C96.8302 35.68 89.9702 32.82 89.9702 27.08V13.84Z" fill="white"/>
<path d="M146.11 19.92C146.11 23.14 143.45 26.42 138.13 26.42H136.06V26.53H142.42L146.73 34.85H133.43L130.15 26.28H133.4C134.91 26.28 135.67 25.3 135.67 24.32C135.67 23.34 134.91 22.36 133.4 22.36H130.21C130.21 22.36 130.15 22.39 130.15 22.42V26.28C130.15 26.32 130.15 26.33 130.15 26.31V34.85H118.53V13.84H138.77C143.67 13.84 146.11 16.84 146.11 19.92Z" fill="white"/>
<path d="M147.1 24.37C147.1 16.59 153.76 13 162.5 13C171.77 13 176.92 16.47 177.9 22.44L166 24.37C166 22.66 164.4 21.96 162.5 21.96C160.48 21.96 159 22.74 159 24.31C159 25.88 160.48 26.72 162.5 26.72C164.52 26.72 166 25.91 166 24.37L177.9 25.57C177.09 31.09 172.47 35.68 162.5 35.68C152.53 35.68 147.1 30.98 147.1 24.37Z" fill="white"/>
<path d="M205.95 24.45V34.84H194.33V28.01C194.33 28.01 194.3 27.95 194.27 27.95H190.43C190.43 27.95 190.4 27.98 190.4 28.01V34.84H178.78V13.84H190.4V22.02C190.4 22.02 190.4 22.08 190.43 22.08H194.27C194.27 22.08 194.33 22.05 194.33 22.02V13.84H205.95V24.45Z" fill="white"/>
<path d="M212.39 24.31C212.39 17.7 217.51 13 227.79 13C238.07 13 243.19 17.7 243.19 24.31C243.19 30.25 238.91 35.68 227.79 35.68C216.67 35.68 212.39 30.25 212.39 24.31ZM227.82 26.77C230.37 26.77 231.29 25.51 231.29 24.31C231.29 23.22 230.42 21.9 227.82 21.9C225.22 21.9 224.29 23.16 224.29 24.34C224.29 25.52 225.21 26.78 227.82 26.78V26.77Z" fill="white"/>
<path d="M255.68 22.1V23.75H267.16V30.41H255.68V34.83H244.03V13.84H267.58V22.07H255.68V22.1Z" fill="white"/>
<path d="M322.112 25.89C323.262 25.89 324.182 25.36 324.182 24.15V13.85H335.802V26.7C335.802 33.17 331.012 35.38 326.222 35.38C323.672 35.38 321.402 34.99 319.582 33.9V25.14C320.342 25.62 321.292 25.9 322.102 25.9L322.112 25.89Z" fill="white"/>
<path d="M348.262 20.91V22.45C348.262 22.49 348.272 22.51 348.292 22.51H360.052V26.46H348.292C348.292 26.46 348.262 26.46 348.262 26.52V28.09H360.642V34.87H336.922V13.85H360.472V20.91H348.262Z" fill="white"/>
<path d="M373.382 26.62H384.302V34.85H361.702V13.85H373.322V26.56C373.322 26.56 373.352 26.62 373.382 26.62Z" fill="white"/>
<path d="M396.902 26.62H407.822V34.85H385.222V13.85H396.842V26.56C396.842 26.56 396.872 26.62 396.902 26.62Z" fill="white"/>
<path d="M423.302 30.65V34.85H411.682V30.62L401.962 13.85H415.402C416.102 16.54 416.832 19.23 417.532 21.91C417.532 21.94 417.592 21.94 417.592 21.91L419.862 13.85H432.572L423.302 30.65Z" fill="white"/>
<path d="M444.722 22.11V23.76H456.202V30.42H444.722V34.84H433.072V13.85H456.622V22.08H444.722V22.11Z" fill="white"/>
<path d="M457.632 18.72V13.85H469.252V34.85H457.632V18.72Z" fill="white"/>
<path d="M485.042 13.01C494.202 13.01 499.992 16.43 498.872 21.72L487.642 22.22C496.712 22.53 499.652 24.49 499.652 28.46C499.652 33.19 493.102 35.68 484.892 35.68C475.762 35.68 469.662 33.1 470.222 26.97L481.732 26.19C472.742 25.83 470.142 23.59 470.142 20.31C470.142 15.55 476.922 13 485.042 13V13.01ZM485.102 28.69C486.562 28.69 487.702 28.24 487.702 27.32C487.702 26.4 486.752 26.26 485.012 26.26H484.312C483.552 26.26 482.852 26.23 482.182 26.23C481.762 27.88 483.242 28.69 485.092 28.69H485.102ZM487.312 22.22C487.872 20.62 486.412 19.92 484.622 19.92C483.142 19.92 482.162 20.51 482.162 21.26C482.162 21.96 482.782 22.18 484.292 22.18H484.992C485.802 22.18 486.592 22.18 487.312 22.21V22.22Z" fill="white"/>
<path d="M527.712 24.46V34.85H516.092V28.02C516.092 28.02 516.062 27.96 516.032 27.96H512.192C512.192 27.96 512.162 27.99 512.162 28.02V34.85H500.542V13.85H512.162V22.03C512.162 22.03 512.162 22.09 512.192 22.09H516.032C516.032 22.09 516.092 22.06 516.092 22.03V13.85H527.712V24.46Z" fill="white"/>
<path d="M281.065 37.6857C281.065 37.6857 281.792 39.7122 283.218 39.8915C284.645 40.0707 285.145 38.8044 285.145 37.6834C285.145 35.3346 281.512 33.7983 280.683 31.9148C280.139 30.6757 280.788 29.3254 281.881 29.3254H284.871C286.049 29.3254 286.635 28.5629 286.233 27.5985C285.909 26.8246 285.045 25.0568 285.045 25.0568" stroke="white" stroke-width="0.918373" stroke-miterlimit="10" stroke-linecap="round"/>
<path d="M287.279 36.9913C287.279 36.9913 287.124 38.2689 287.622 39.0382C288.319 40.1161 290.146 40.4225 291.041 39.0019C291.823 37.7628 291.483 35.4209 291.481 30.6916C291.479 27.5032 291.481 25.0046 291.481 25.0046" stroke="white" stroke-width="0.918373" stroke-miterlimit="10" stroke-linecap="round"/>
<path d="M276.881 18.3033C276.881 18.3033 275.639 15.0945 276.856 13.9258C278.323 12.5188 279.829 13.81 282.191 13.54C283.482 13.3925 284.248 12.6096 284.393 11.8198C284.584 10.7759 283.528 9.63446 282.358 9.16925" stroke="white" stroke-width="0.918373" stroke-miterlimit="10" stroke-linecap="round"/>
<path d="M304.017 15.9931C303.279 15.9931 302.646 15.4689 302.459 14.7404C300.608 7.58292 293.578 7.84843 293.578 7.84843C293.578 7.84843 286.548 7.58292 284.7 14.7427C284.511 15.4711 283.88 15.9931 283.142 15.9953C280.816 16.0022 276.161 16.5445 276.161 20.7678C276.161 25.96 280.82 24.9864 286.751 24.9864C292.681 24.9864 293.581 25.0591 293.581 25.0591C293.581 25.0591 294.48 24.9864 300.411 24.9864C306.341 24.9864 311 25.96 311 20.7678C311 16.5445 306.345 16.0022 304.019 15.9953L304.017 15.9931Z" stroke="white" stroke-width="0.918373" stroke-miterlimit="10" stroke-linecap="round"/>
<path d="M306.094 37.6857C306.094 37.6857 305.368 39.7122 303.941 39.8915C302.572 40.0617 302.015 38.8044 302.015 37.6834C302.015 35.3346 305.648 33.7983 306.476 31.9148C307.021 30.6757 306.372 29.3254 305.279 29.3254H302.288C301.11 29.3254 300.524 28.5629 300.926 27.5985C301.25 26.8246 302.115 25.0568 302.115 25.0568" stroke="white" stroke-width="0.918373" stroke-miterlimit="10" stroke-linecap="round"/>
<path d="M299.879 36.9913C299.879 36.9913 300.035 38.2689 299.537 39.0382C298.839 40.1161 297.013 40.4225 296.117 39.0019C295.335 37.7628 295.675 35.4209 295.677 30.6916C295.68 27.5032 295.677 25.0046 295.677 25.0046" stroke="white" stroke-width="0.918373" stroke-miterlimit="10" stroke-linecap="round"/>
<path d="M310.278 18.3033C310.278 18.3033 311.52 15.0945 310.303 13.9258C308.836 12.5188 307.33 13.81 304.968 13.54C303.677 13.3925 302.911 12.6096 302.766 11.8198C302.575 10.7759 303.63 9.63446 304.801 9.16925" stroke="white" stroke-width="0.918373" stroke-miterlimit="10" stroke-linecap="round"/>
<path d="M293.578 13.962V21.1648" stroke="white" stroke-width="0.918373" stroke-linecap="round" stroke-linejoin="round"/>
<path d="M293.578 13.962V21.1648" stroke="white" stroke-width="0.918373" stroke-linecap="round" stroke-linejoin="round"/>
<path d="M297.105 17.5635H290.053" stroke="white" stroke-width="0.918373" stroke-linecap="round" stroke-linejoin="round"/>
<path d="M296.074 20.1097L291.086 15.0173" stroke="white" stroke-width="0.918373" stroke-linecap="round" stroke-linejoin="round"/>
<path d="M296.074 15.0173L291.086 20.1097" stroke="white" stroke-width="0.918373" stroke-linecap="round" stroke-linejoin="round"/>
</svg>
