<svg width="159" height="50" viewBox="0 0 159 50" fill="none" xmlns="http://www.w3.org/2000/svg">
<g clip-path="url(#clip0_370_2208)">
<path d="M158.392 11.6713C157.758 11.2371 156.889 11.3974 156.452 12.0321C155.737 13.0743 154.578 14.3369 153.996 14.554C153.559 14.7177 152.918 14.7444 152.537 14.4906C152.269 14.3068 152.126 13.9394 152.112 13.3882C152.066 11.2905 151.15 10.5222 150.389 10.2483C149.196 9.81742 147.79 10.4688 146.501 11.4408V6.72425H156.649V3.64111H142.9V24.5784C142.486 25.3534 142.111 26.3254 141.777 27.5012C140.962 30.3572 140.498 34.1585 140.665 37.7594C139.058 39.4463 137.659 40.552 137.071 40.4618C136.907 40.1979 137.148 39.0421 137.278 38.4241C137.622 36.7673 138.096 34.4992 136.276 33.1598C135.431 32.5385 134.465 32.3314 133.483 32.5652C133.012 32.6754 132.571 32.8859 132.161 33.1531V26.3688H128.586V47.9475H132.161V37.1381C132.735 36.293 133.51 35.4279 134.128 35.2842C134.248 35.2575 134.389 35.2408 134.619 35.4145C134.993 35.6884 134.743 36.8909 134.542 37.8563C134.212 39.4463 133.711 41.8513 135.795 42.9503C136.106 43.114 136.503 43.2376 137.004 43.2376C137.959 43.2376 139.289 42.7766 141.063 41.2969C141.246 42.2722 141.494 43.2008 141.814 44.046C142.552 46.0034 144.957 49.8348 147.165 49.8348C147.937 49.8348 148.562 49.2101 148.562 48.4385C148.562 47.6669 147.994 47.1024 147.276 47.0456C146.704 46.785 145.121 44.8911 144.43 43.0572C143.965 41.8313 143.681 40.3816 143.538 38.8417C144.517 37.7294 145.592 36.3598 146.775 34.6696C147.216 34.0383 147.062 33.1664 146.431 32.7255C145.799 32.2846 144.927 32.4382 144.486 33.0696C144.159 33.5339 143.822 33.9949 143.478 34.4458C143.611 32.1944 143.969 30.0098 144.463 28.2695C144.744 27.2908 145.014 26.5993 145.251 26.115C145.155 26.6427 145.365 27.2006 145.833 27.5246C146.471 27.9622 147.339 27.8018 147.773 27.1638C147.95 26.9066 148.812 25.5605 148.485 24.1976C148.315 23.4928 147.874 22.9283 147.206 22.5642C146.975 22.4406 146.738 22.3537 146.497 22.297V15.2121C147.54 14.1465 148.655 13.248 149.28 12.9841C149.297 13.0976 149.313 13.2513 149.317 13.4551C149.357 15.329 150.235 16.3111 150.963 16.8054C151.682 17.2931 152.497 17.4802 153.265 17.4802C153.89 17.4802 154.481 17.3599 154.962 17.1795C156.685 16.5382 158.419 14.0997 158.75 13.6187C159.184 12.9841 159.024 12.1156 158.386 11.678L158.392 11.6713Z" fill="white"/>
<path d="M12.9066 26.5158C13.8519 26.1617 14.6469 25.6874 15.2949 25.0961C15.9396 24.5049 16.4774 23.9036 16.905 23.2957C17.3325 22.6877 17.6833 22.0531 17.9538 21.3984L14.7337 20.3896C14.3329 21.3917 13.6916 22.2368 12.8097 22.9249C11.9279 23.6164 10.9124 23.9604 9.76665 23.9604C8.00295 23.9604 6.59332 23.2222 5.53777 21.7524C4.48222 20.2794 3.95444 18.2785 3.95444 15.7498C3.95444 13.2212 4.47554 11.2704 5.52441 9.79066C6.56994 8.30755 7.9829 7.56599 9.76665 7.56599C11.6406 7.56599 13.1571 8.61152 14.3229 10.7026L17.406 9.69379C16.768 8.2207 15.7993 6.98477 14.4999 5.98267C13.2005 4.9839 11.6406 4.48285 9.82009 4.48285C7.00084 4.48285 4.69934 5.49831 2.91894 7.52591C1.14187 9.55684 0.25 12.2993 0.25 15.7532C0.25 19.2071 1.15523 22.023 2.9657 24.0339C4.77617 26.0448 7.06097 27.0469 9.82678 27.0469C10.9358 27.0469 11.9646 26.8699 12.9099 26.5158H12.9066Z" fill="white"/>
<path d="M51.1401 18.4823C51.1401 20.266 50.7593 21.6255 49.9944 22.5608C49.2294 23.4961 48.1472 23.9671 46.7476 23.9671C45.348 23.9671 44.3191 23.5162 43.5575 22.6176C42.7926 21.7191 42.4118 20.3395 42.4118 18.4856V4.98059H38.7842V18.4823C38.7842 21.3182 39.4756 23.4561 40.8585 24.8924C41.4698 25.5271 42.198 26.0114 43.0331 26.3655H39.6159V47.9441H52.984V44.8877H43.2168V26.4457C44.2356 26.8432 45.4081 27.0469 46.7476 27.0469C49.3831 27.0469 51.3773 26.3054 52.7201 24.8223C54.0663 23.3391 54.7377 21.2247 54.7377 18.4789V4.98059H51.1368V18.4823H51.1401Z" fill="white"/>
<path d="M87.2993 26.5158C88.2446 26.1617 89.0396 25.6874 89.6877 25.0961C90.3323 24.5049 90.8701 23.9036 91.2977 23.2957C91.7253 22.6877 92.076 22.0531 92.3466 21.3984L89.1265 20.3896C88.7256 21.3917 88.0843 22.2368 87.2024 22.9249C86.3206 23.6164 85.3051 23.9604 84.1594 23.9604C82.3957 23.9604 80.986 23.2222 79.9305 21.7524C78.8749 20.2794 78.3472 18.2785 78.3472 15.7498C78.3472 13.2212 78.8683 11.2704 79.9171 9.79066C80.9627 8.30755 82.3756 7.56599 84.1594 7.56599C86.0333 7.56599 87.5498 8.61152 88.7156 10.7026L91.7988 9.69379C91.1607 8.2207 90.192 6.98477 88.8926 5.98266C87.5933 4.9839 86.0333 4.48285 84.2128 4.48285C81.3936 4.48285 79.0921 5.49831 77.3117 7.52591C75.5279 9.5535 74.6394 12.2959 74.6394 15.7498C74.6394 19.2038 75.5446 22.0197 77.3551 24.0306C78.9384 25.7876 80.8858 26.7763 83.1974 26.9968C82.7431 29.3885 81.9547 31.7067 81.3401 32.485C81.2934 31.8837 81.1297 30.7413 79.8203 30.1467C79.0052 29.776 78.1468 29.8127 77.4019 30.2503C76.1993 30.9551 75.4578 32.7555 75.0001 34.556C74.5859 33.8211 74.2185 33.1597 73.978 32.7221L70.9116 26.8632C71.1587 26.7529 71.3959 26.6193 71.6231 26.4557C73.7308 24.9358 74.1751 21.6021 74.2185 21.2247C74.3087 20.4597 73.7609 19.7649 72.9926 19.6747C72.2243 19.5846 71.5329 20.1357 71.4427 20.9007C71.3491 21.699 70.8715 23.5496 69.9863 24.1876C69.7925 24.3279 69.5019 24.4748 68.9742 24.3646C67.9888 24.1608 67.7048 23.6097 68.0756 20.9107C68.1224 20.5633 68.1658 20.2426 68.1892 19.9654C68.256 19.167 68.3729 18.4388 68.5032 17.7674C69.4084 17.4735 70.2034 17.0225 70.8815 16.4045C72.1809 15.2221 72.8323 13.612 72.8323 11.5777C72.8323 9.54348 72.2009 8.00023 70.9349 6.79103C69.6723 5.58182 67.9119 4.97722 65.6572 4.97722H57.2295V26.3655H55.1284V47.9441H68.4965V44.8877H58.7293V26.5559H60.8304V18.1816H65.6004C65.5236 18.6726 65.4534 19.1871 65.4067 19.7416C65.3866 19.9754 65.3499 20.2459 65.3098 20.5366C65.1161 21.9428 64.7152 24.889 66.6894 26.3655H66.5324L74.0348 39.1857V47.9408H77.6357V43.0872C77.6357 41.7344 77.4453 40.3983 77.0812 39.1089C77.0945 39.0454 77.1112 38.9786 77.1179 38.9118C77.3217 36.4299 77.9831 33.7911 78.5743 32.9192C78.6177 33.5171 78.7781 34.6696 80.0942 35.2641C80.8558 35.6115 81.6775 35.5815 82.409 35.1873C84.7005 33.9447 85.746 28.8173 86.0667 26.8598C86.4943 26.773 86.9085 26.6628 87.306 26.5124L87.2993 26.5158ZM66.185 15.0517C65.881 15.0985 65.5637 15.1285 65.2196 15.1285H63.81C64.2542 14.3836 64.7854 13.7289 65.2864 13.5352C65.4668 13.465 65.6472 13.4517 65.9411 13.6154C66.2484 13.7857 66.3687 13.926 66.185 15.0517ZM64.2776 10.9297C62.5908 11.5811 61.4417 13.4918 60.8271 14.7912V8.06036H65.1929C66.4823 8.06036 67.4643 8.36099 68.1391 8.95891C68.8105 9.56018 69.1479 10.432 69.1479 11.5777C69.1479 12.1389 69.0643 12.6366 68.904 13.0642C68.6869 12.326 68.2092 11.6713 67.2906 11.1635C66.3119 10.6224 65.2697 10.5422 64.2776 10.923V10.9297Z" fill="white"/>
<path d="M38.1229 35.7452C37.4849 35.3076 36.6164 35.4713 36.1821 36.106C35.4673 37.1482 34.3082 38.4108 33.727 38.6279C33.2894 38.7916 32.648 38.8217 32.2673 38.5645C32 38.3808 31.8564 38.0133 31.8464 37.4622C31.7996 35.3644 30.8843 34.5961 30.1227 34.3222C29.0238 33.9247 27.7377 34.4458 26.5352 35.2909V35.2843H26.5319V29.4453H37.0874V28.3631C37.6385 28.176 38.0394 27.6616 38.0394 27.047C38.0394 26.3121 37.4715 25.7108 36.7533 25.654C36.1821 25.3935 34.5988 23.4995 33.9074 21.6657C33.5132 20.6201 33.246 19.4076 33.0856 18.1182C34.2214 16.9023 35.4974 15.329 36.9337 13.278C37.3746 12.6467 37.221 11.7749 36.5897 11.334C35.9583 10.893 35.0865 11.0467 34.6456 11.678C34.0944 12.4663 33.5099 13.238 32.9186 13.9695C32.9988 11.4008 33.3829 8.85209 33.9441 6.8746C34.2247 5.89588 34.4953 5.20443 34.7324 4.72008C34.6356 5.24785 34.846 5.80569 35.3136 6.1297C35.9483 6.56729 36.8201 6.40361 37.2544 5.76895C37.4314 5.51174 38.2932 4.16558 37.9659 2.80272C37.7955 2.09791 37.3546 1.53339 36.6865 1.16929C35.965 0.775128 35.1633 0.728363 34.4285 1.03568C33.109 1.59017 32.0702 3.25033 31.2551 6.10966C30.3933 9.13936 29.919 13.2313 30.1829 17.0192C28.8534 18.332 27.7344 19.1504 27.23 19.0702C27.0663 18.8063 27.3068 17.6506 27.4371 17.0326C27.7812 15.3758 28.2555 13.1077 26.435 11.7682C25.5899 11.1469 24.6245 10.9398 23.6425 11.1736C23.1715 11.2839 22.7306 11.4943 22.3197 11.7615V4.98063H18.7455V26.3689H17.0687V41.3169C17.0687 42.6263 16.8248 43.6284 16.3338 44.3166C15.8428 45.008 15.1413 45.3521 14.2327 45.3521C13.4878 45.3521 12.8565 45.1015 12.3354 44.6005C11.8176 44.0994 11.4502 43.4781 11.2297 42.7332L8.25684 43.9324C8.62093 45.1884 9.3057 46.2506 10.3178 47.1224C11.3266 47.9943 12.6594 48.4319 14.3129 48.4319C16.3505 48.4319 17.9171 47.854 19.0194 46.6982C20.1184 45.5425 20.6696 43.9124 20.6696 41.8013V26.5526H22.3164V15.7432C22.8909 14.8981 23.6659 14.033 24.2838 13.8893C24.4041 13.8593 24.5444 13.8459 24.7749 14.0196C25.149 14.2935 24.8984 15.496 24.698 16.4614C24.3673 18.0514 23.8663 20.4565 25.9507 21.5554C26.2613 21.7191 26.6588 21.8427 27.1599 21.8427C28.0083 21.8427 29.1507 21.4786 30.6338 20.3663C30.8075 21.1713 31.018 21.9429 31.2885 22.6511C31.666 23.6532 32.481 25.143 33.4831 26.3622H22.9276V47.9408H37.3579V44.8844H26.5285V38.9787C27.4805 38.0467 28.4492 37.2885 29.0138 37.048C29.0305 37.1615 29.0472 37.3152 29.0505 37.5189C29.0906 39.3929 29.9691 40.3749 30.6973 40.8693C31.4155 41.357 32.2305 41.5441 32.9988 41.5441C33.6201 41.5441 34.2113 41.4238 34.6957 41.2434C36.4193 40.6021 38.1529 38.1636 38.4836 37.6826C38.9179 37.048 38.7575 36.1795 38.1195 35.7419L38.1229 35.7452Z" fill="white"/>
<path d="M105.949 26.3655H102.348V47.9441H105.949V26.3655Z" fill="white"/>
<path d="M123.422 37.8931C122.814 37.412 122.19 37.0145 121.555 36.7072C120.917 36.3999 120.182 36.106 119.347 35.8354C119.183 35.782 118.866 35.6751 118.392 35.5214C117.917 35.3678 117.597 35.2609 117.423 35.2074C117.249 35.154 116.962 35.0538 116.564 34.9068C116.164 34.7632 115.876 34.6429 115.706 34.5527C115.532 34.4625 115.302 34.3356 115.011 34.1719C114.721 34.0082 114.51 33.8546 114.383 33.7076C114.256 33.564 114.109 33.3903 113.946 33.1898C113.782 32.9894 113.672 32.7756 113.618 32.5485C113.565 32.3214 113.538 32.0809 113.538 31.827C113.538 30.9719 113.882 30.2804 114.574 29.7526C115.265 29.2249 116.2 28.961 117.383 28.961C119.31 28.961 120.857 29.8061 122.019 31.4963L125.046 30.4875C124.444 29.1413 123.486 28.0357 122.166 27.1739C120.847 26.3087 119.26 25.8778 117.406 25.8778C116.047 25.8778 114.844 26.0816 113.792 26.4791C113.588 26.0248 113.151 25.7008 112.633 25.6607C112.062 25.4002 110.478 23.5062 109.787 21.6723C109.323 20.4464 109.039 18.9967 108.895 17.4568C109.874 16.3445 110.949 14.9783 112.132 13.2847C112.573 12.6534 112.419 11.7816 111.788 11.3406C111.156 10.8997 110.285 11.0534 109.844 11.6847C109.516 12.149 109.179 12.61 108.835 13.0609C108.968 10.8095 109.326 8.62493 109.82 6.88461C110.101 5.90589 110.371 5.21444 110.609 4.73009C110.512 5.25786 110.722 5.8157 111.19 6.13971C111.824 6.5773 112.696 6.41362 113.131 5.77896C113.308 5.52175 114.169 4.17559 113.842 2.81273C113.672 2.10792 113.231 1.5434 112.563 1.1793C111.841 0.785138 111.039 0.738373 110.305 1.04568C108.985 1.60018 107.946 3.26034 107.131 6.11967C106.316 8.97567 105.852 12.777 106.019 16.3779C104.412 18.0681 103.009 19.1704 102.425 19.0802C102.261 18.8163 102.502 17.6639 102.632 17.0426C102.976 15.3858 103.45 13.1177 101.63 11.7782C100.785 11.1569 99.8193 10.9498 98.8372 11.1836C98.3662 11.2939 97.9253 11.5043 97.5144 11.7715V4.98061H93.9402V24.7822C93.2989 24.4482 92.554 24.2444 91.7523 24.3112C90.6901 24.3981 89.1736 24.9993 87.9944 27.3643C87.1593 29.0378 86.9288 32.3548 86.9689 35.8655C86.6249 36.2195 86.3075 36.5669 86.037 36.8809C85.5326 37.4622 85.5927 38.344 86.1773 38.8517C86.4378 39.0789 86.7585 39.1858 87.0792 39.1891C87.2963 43.4514 87.7606 47.3128 87.8608 48.1212C87.9477 48.8294 88.5523 49.3438 89.2437 49.3438C89.3005 49.3438 89.3606 49.3438 89.4174 49.3337C90.1823 49.2369 90.7268 48.5421 90.63 47.7738C90.2592 44.8042 89.9018 40.7324 89.7915 37.0546C90.5197 36.4066 91.2112 35.8955 91.6488 35.7051C91.6655 35.8187 91.6822 35.9724 91.6855 36.1728C91.7256 38.0467 92.6041 39.0288 93.3323 39.5231C94.0505 40.0108 94.8655 40.1979 95.6338 40.1979C96.2551 40.1979 96.8463 40.0776 97.3307 39.8973C99.0543 39.2559 100.788 36.8175 101.119 36.3365C101.553 35.7018 101.393 34.8333 100.755 34.3957C100.117 33.9581 99.2481 34.1218 98.8138 34.7565C98.099 35.7987 96.9399 37.0613 96.3586 37.2784C95.9211 37.4421 95.2797 37.4688 94.8989 37.215C94.6317 37.0312 94.4881 36.6638 94.478 36.1127C94.4313 34.0149 93.516 33.25 92.7544 32.9727C91.8392 32.642 90.7936 32.9527 89.7715 33.5573C89.8283 31.3226 90.0421 29.5088 90.4897 28.6136C90.7602 28.0691 91.3147 27.1505 91.9794 27.0937C92.5239 27.0469 93.1519 27.5513 93.4225 27.9255C94.7386 29.7359 97.1269 30.8215 99.4952 29.1681C100.127 28.7271 100.284 27.8553 99.8426 27.224C99.4017 26.5927 98.5299 26.4357 97.8985 26.8766C97.0601 27.4612 96.3787 27.0837 95.9044 26.5559H97.5077V15.7466C98.0923 14.8914 98.8739 14.033 99.4752 13.8927C99.5988 13.8626 99.7357 13.8492 99.9696 14.0229C100.344 14.2968 100.093 15.4994 99.8927 16.4647C99.562 18.0547 99.061 20.4598 101.145 21.5588C101.456 21.7224 101.854 21.846 102.355 21.846C103.31 21.846 104.639 21.3851 106.413 19.9053C106.597 20.8807 106.844 21.8093 107.165 22.6544C107.766 24.2477 109.476 27.0904 111.283 28.0858C110.308 29.0912 109.814 30.3339 109.814 31.8203C109.814 33.9314 110.786 35.5381 112.733 36.6471C113.478 37.0647 114.914 37.6292 117.042 38.3373C118.532 38.8484 119.664 39.3728 120.439 39.9206C121.211 40.4651 121.598 41.2301 121.598 42.2121C121.598 43.1407 121.234 43.8957 120.506 44.4769C119.778 45.0581 118.816 45.3487 117.613 45.3487C116.411 45.3487 115.385 45.0614 114.423 44.4902C113.458 43.9157 112.723 43.1775 112.215 42.2656L109.052 43.3278C109.743 44.8911 110.832 46.1337 112.326 47.0523C113.815 47.9709 115.552 48.4285 117.536 48.4285C119.828 48.4285 121.695 47.874 123.142 46.765C124.588 45.656 125.309 44.0927 125.309 42.0718C125.309 41.18 125.146 40.3816 124.818 39.6701C124.491 38.962 124.023 38.364 123.412 37.883L123.422 37.8931Z" fill="white"/>
<path d="M130.123 22.661C130.123 23.2489 130.597 23.7233 131.185 23.7233C131.773 23.7233 132.247 23.2489 132.247 22.661V16.9958L136.252 21.0009C136.459 21.208 136.733 21.3115 137.004 21.3115C137.274 21.3115 137.548 21.208 137.755 21.0009C138.17 20.5867 138.17 19.9119 137.755 19.4977L133.75 15.4927H139.416C140.003 15.4927 140.478 15.0183 140.478 14.4304C140.478 13.8425 140.003 13.3682 139.416 13.3682H133.75L137.755 9.36311C138.17 8.94891 138.17 8.27416 137.755 7.85996C137.341 7.44575 136.666 7.44575 136.252 7.85996L132.247 11.865V6.1998C132.247 5.6119 131.773 5.13757 131.185 5.13757C130.597 5.13757 130.123 5.6119 130.123 6.1998V11.865L126.118 7.85996C125.703 7.44575 125.029 7.44575 124.614 7.85996C124.2 8.27416 124.2 8.94891 124.614 9.36311L128.62 13.3682H122.954C122.366 13.3682 121.892 13.8425 121.892 14.4304C121.892 15.0183 122.366 15.4927 122.954 15.4927H128.62L124.614 19.4977C124.2 19.9119 124.2 20.5867 124.614 21.0009C124.822 21.208 125.095 21.3115 125.366 21.3115C125.637 21.3115 125.911 21.208 126.118 21.0009L130.123 16.9958V22.661Z" fill="white"/>
</g>
<defs>
<clipPath id="clip0_370_2208">
<rect width="158.75" height="48.9929" fill="white" transform="translate(0.25 0.838562)"/>
</clipPath>
</defs>
</svg>
